<?xml version="1.0" encoding="UTF-8" ?>
<!DOCTYPE svg PUBLIC "-//W3C//DTD SVG 1.1//EN" "http://www.w3.org/Graphics/SVG/1.1/DTD/svg11.dtd">
<svg width="66pt" height="65pt" viewBox="0 0 66 65" version="1.1" xmlns="http://www.w3.org/2000/svg">
<path   opacity="1.00" d=" M 19.58 6.48 C 25.77 -1.83 39.59 -2.00 46.09 6.02 C 50.46 10.97 48.85 17.99 49.13 24.00 C 49.44 29.59 47.34 34.96 43.85 39.24 C 43.74 41.03 43.89 42.87 43.38 44.60 C 42.62 46.62 39.34 46.42 38.62 44.47 C 37.91 41.03 37.76 36.99 40.49 34.35 C 45.13 28.97 43.37 21.45 43.68 14.98 C 44.15 9.30 38.19 5.44 33.05 5.57 C 28.19 5.48 22.41 8.77 22.36 14.14 C 22.44 19.41 21.73 24.83 23.06 29.99 C 23.94 33.68 28.25 35.86 27.74 39.97 C 27.57 41.92 28.31 44.97 25.89 45.78 C 20.39 48.12 14.53 49.52 9.08 51.97 C 6.11 53.15 6.32 56.80 6.01 59.41 C 17.65 59.46 29.30 59.43 40.95 59.55 C 44.32 59.23 44.65 64.27 41.58 65.00 L 3.30 65.00 C -0.25 64.09 0.94 59.79 0.80 57.06 C 0.71 52.91 2.92 48.66 6.81 46.94 C 11.96 44.73 17.37 43.18 22.62 41.22 C 21.69 37.80 18.98 35.28 17.94 31.91 C 16.49 27.77 16.94 23.30 16.86 19.00 C 16.86 14.72 16.60 9.96 19.58 6.48 Z" />
<path   opacity="1.00" d=" M 51.69 51.33 C 52.05 48.70 50.50 43.90 54.16 43.30 C 58.35 43.19 56.91 48.64 57.20 51.33 C 59.44 51.36 61.71 51.20 63.91 51.72 C 65.67 52.69 65.61 55.84 63.64 56.54 C 61.53 57.01 59.34 56.83 57.19 56.89 C 56.92 59.60 58.07 63.27 55.27 65.00 L 54.54 65.00 C 50.55 64.48 51.97 59.66 51.69 56.89 C 49.56 56.83 47.40 57.01 45.31 56.56 C 43.21 55.94 43.14 52.43 45.15 51.67 C 47.30 51.21 49.51 51.36 51.69 51.33 Z" />
</svg>
