<?xml version="1.0" encoding="UTF-8" ?>
<!DOCTYPE svg PUBLIC "-//W3C//DTD SVG 1.1//EN" "http://www.w3.org/Graphics/SVG/1.1/DTD/svg11.dtd">
<svg width="65pt" height="65pt" viewBox="0 0 65 65" version="1.1" xmlns="http://www.w3.org/2000/svg">
<path  opacity="1.00" d=" M 29.98 0.00 L 34.52 0.00 C 50.77 0.56 65.04 15.12 65.00 31.44 L 65.00 34.51 C 64.44 51.11 49.27 65.36 32.67 65.00 L 32.56 65.00 C 15.86 65.50 0.51 51.18 0.00 34.46 L 0.00 31.37 C -0.02 15.23 13.94 0.86 29.98 0.00 M 29.08 5.15 C 17.98 6.42 8.17 15.06 5.73 26.00 C 3.03 36.10 7.09 47.46 15.22 53.92 C 24.62 61.66 39.06 62.00 48.79 54.67 C 55.98 49.53 60.13 40.76 60.13 31.98 C 59.84 25.68 57.60 19.44 53.48 14.62 C 47.60 7.71 38.10 3.89 29.08 5.15 Z" />
<path  opacity="1.00" d=" M 30.11 16.92 C 30.63 14.64 34.43 14.81 34.79 17.09 C 34.99 21.40 34.80 25.72 34.87 30.04 C 39.23 30.12 43.61 29.90 47.97 30.14 C 50.21 30.68 50.25 34.36 47.92 34.81 C 43.58 35.06 39.22 34.83 34.87 34.91 C 34.79 39.23 34.99 43.56 34.78 47.88 C 34.43 50.18 30.52 50.30 30.11 47.97 C 29.83 43.62 30.08 39.26 30.00 34.91 C 25.66 34.84 21.33 35.04 17.00 34.82 C 14.67 34.48 14.65 30.55 16.95 30.13 C 21.29 29.92 25.65 30.11 30.00 30.04 C 30.08 25.67 29.84 21.29 30.11 16.92 Z" />
</svg>
