<?xml version="1.0" encoding="UTF-8" ?>
<!DOCTYPE svg PUBLIC "-//W3C//DTD SVG 1.1//EN" "http://www.w3.org/Graphics/SVG/1.1/DTD/svg11.dtd">
<svg width="83pt" height="100pt" viewBox="0 0 83 100" version="1.1" xmlns="http://www.w3.org/2000/svg">
<path   opacity="1.00" d=" M 40.00 0.00 L 42.16 0.00 C 46.34 1.27 45.09 6.17 45.27 9.48 C 55.22 10.84 64.41 17.06 68.93 26.09 C 72.20 32.19 72.65 39.33 72.12 46.11 C 71.73 49.72 66.15 50.37 64.77 47.07 C 63.89 43.44 64.76 39.61 63.99 35.94 C 62.32 25.55 52.57 17.30 42.06 17.24 C 31.57 16.77 21.56 24.64 19.40 34.90 C 18.04 42.24 19.45 49.78 18.50 57.16 C 17.61 63.43 13.20 68.50 8.01 71.80 C 9.29 75.92 12.17 80.39 17.01 80.37 C 32.32 80.54 47.65 80.36 62.97 80.46 C 65.63 80.43 68.58 80.54 70.81 78.84 C 73.17 77.22 74.07 74.38 75.03 71.83 C 72.58 70.00 69.86 68.26 68.28 65.56 C 66.93 63.08 69.14 59.69 71.96 59.95 C 73.80 59.95 74.91 61.72 76.28 62.70 C 78.33 64.69 81.27 65.57 83.00 67.92 L 83.00 71.07 C 82.34 78.30 77.85 85.68 70.52 87.61 C 64.94 88.87 59.17 88.14 53.50 88.28 C 53.11 93.97 48.96 99.11 43.20 100.00 L 40.01 100.00 C 34.14 99.27 29.90 94.03 29.50 88.28 C 23.96 88.14 18.32 88.87 12.87 87.65 C 5.40 85.66 0.66 78.15 0.00 70.74 L 0.00 68.04 C 1.27 65.89 3.75 65.10 5.67 63.68 C 8.62 61.71 10.54 58.34 10.83 54.82 C 11.47 45.99 9.59 36.68 13.21 28.29 C 17.18 18.29 26.77 11.08 37.35 9.52 C 37.54 6.23 36.34 1.82 40.00 0.00 M 37.29 88.41 C 38.08 89.96 38.92 91.99 40.96 92.11 C 43.41 92.61 44.93 90.36 45.73 88.44 C 42.92 88.26 40.10 88.27 37.29 88.41 Z" />
</svg>
