<?xml version="1.0" encoding="UTF-8" ?>
<!DOCTYPE svg PUBLIC "-//W3C//DTD SVG 1.1//EN" "http://www.w3.org/Graphics/SVG/1.1/DTD/svg11.dtd">
<svg width="73pt" height="75pt" viewBox="0 0 73 75" version="1.1" xmlns="http://www.w3.org/2000/svg">
<path   opacity="1.00" d=" M 2.09 6.66 C -0.36 5.94 -0.41 1.67 2.10 1.04 C 6.70 -0.01 12.14 1.10 15.21 4.88 C 17.62 8.19 18.49 12.29 19.92 16.06 C 36.31 16.14 52.71 15.89 69.11 16.06 C 71.25 15.70 73.43 17.75 72.58 19.94 C 70.33 27.68 67.55 35.27 65.08 42.95 C 64.05 46.93 60.20 49.93 56.06 49.74 C 48.05 49.77 40.04 49.76 32.03 49.75 C 28.21 49.92 24.50 47.43 23.22 43.83 C 19.37 33.22 15.69 22.55 11.89 11.92 C 11.21 9.97 10.17 7.79 7.97 7.25 C 6.02 6.92 4.04 6.97 2.09 6.66 M 22.07 22.25 C 24.37 28.59 26.49 35.00 28.86 41.32 C 29.25 42.73 30.58 43.71 32.06 43.55 C 40.03 43.50 48.01 43.77 55.98 43.54 C 57.47 43.65 58.77 42.69 59.14 41.25 C 61.42 34.98 63.30 28.57 65.46 22.25 C 51.00 22.25 36.53 22.25 22.07 22.25 Z" />
<path   opacity="1.00" d=" M 28.19 56.08 C 33.34 54.59 39.14 58.69 39.51 64.03 C 40.30 69.38 35.40 74.73 29.97 74.25 C 24.90 74.14 20.80 69.10 21.37 64.14 C 21.72 60.39 24.53 57.02 28.19 56.08 M 28.56 62.69 C 27.17 63.80 27.07 66.23 28.52 67.34 C 30.27 69.12 33.51 67.45 33.49 65.08 C 33.60 62.66 30.37 60.96 28.56 62.69 Z" />
<path   opacity="1.00" d=" M 52.21 56.12 C 57.41 54.50 63.34 58.69 63.68 64.10 C 64.42 69.47 59.45 74.80 54.01 74.24 C 48.94 74.06 44.86 68.94 45.55 63.98 C 45.95 60.34 48.67 57.09 52.21 56.12 M 53.32 62.32 C 51.41 63.11 51.04 66.04 52.66 67.31 C 54.14 68.82 56.85 67.91 57.47 66.00 C 58.45 63.68 55.49 61.00 53.32 62.32 Z" />
</svg>
