<?xml version="1.0" encoding="UTF-8" ?>
<!DOCTYPE svg PUBLIC "-//W3C//DTD SVG 1.1//EN" "http://www.w3.org/Graphics/SVG/1.1/DTD/svg11.dtd">
<svg width="45pt" height="46pt" viewBox="0 0 45 46" version="1.1" xmlns="http://www.w3.org/2000/svg">
<path   opacity="1.00" d=" M 9.46 4.42 C 9.59 2.13 10.48 0.42 13.07 0.98 C 13.24 2.18 13.41 3.38 13.59 4.58 C 15.84 4.55 18.10 4.56 20.36 4.59 C 20.91 3.47 20.32 1.12 22.01 1.03 C 24.31 0.12 24.17 3.21 24.66 4.58 C 26.91 4.55 29.17 4.56 31.42 4.58 C 31.58 3.37 31.75 2.16 31.93 0.95 C 34.51 0.46 35.41 2.12 35.53 4.42 C 39.56 4.20 43.95 6.62 44.28 10.99 C 44.48 19.97 44.38 28.97 44.33 37.96 C 44.38 41.80 40.88 45.20 37.05 45.09 C 27.33 45.15 17.60 45.16 7.87 45.08 C 4.11 45.16 0.66 41.87 0.69 38.08 C 0.61 29.04 0.51 19.99 0.73 10.95 C 1.05 6.60 5.46 4.22 9.46 4.42 M 4.68 10.45 C 4.20 12.12 4.34 13.89 4.23 15.61 C 16.41 15.63 28.59 15.64 40.77 15.61 C 40.66 13.89 40.81 12.11 40.31 10.44 C 39.61 8.50 37.32 8.50 35.66 8.02 C 35.08 9.57 35.42 12.32 33.02 12.05 C 31.43 11.55 31.74 9.55 31.28 8.30 C 29.07 8.32 26.85 8.32 24.64 8.29 C 24.23 9.59 24.29 12.63 22.14 11.92 C 20.39 11.88 20.93 9.42 20.34 8.29 C 18.13 8.32 15.93 8.32 13.72 8.30 C 13.30 10.00 13.31 12.47 10.87 12.10 C 9.79 11.01 9.75 9.41 9.34 8.02 C 7.67 8.50 5.37 8.50 4.68 10.45 M 4.31 19.38 C 4.33 25.56 4.31 31.74 4.43 37.92 C 4.32 40.30 6.84 41.67 8.97 41.37 C 18.30 41.34 27.64 41.45 36.97 41.32 C 38.89 41.44 40.60 39.84 40.60 37.92 C 40.83 31.75 40.61 25.56 40.69 19.38 C 28.56 19.38 16.44 19.38 4.31 19.38 Z" />
<path   opacity="1.00" d=" M 11.25 24.81 C 13.68 24.36 14.28 28.20 11.87 28.62 C 9.48 28.98 8.89 25.12 11.25 24.81 Z" />
<path   opacity="1.00" d=" M 33.31 24.80 C 36.01 24.47 35.74 29.19 33.13 28.50 C 30.94 28.43 31.13 24.68 33.31 24.80 Z" />
<path   opacity="1.00" d=" M 19.02 29.12 C 16.99 28.15 15.92 24.99 18.99 24.71 C 21.66 25.29 20.61 27.98 19.02 29.12 Z" />
<path   opacity="1.00" d=" M 24.65 25.55 C 25.56 24.05 27.26 24.97 28.10 25.99 C 28.21 27.49 26.89 28.26 25.93 29.13 C 25.27 28.13 23.48 26.83 24.65 25.55 Z" />
<path   opacity="1.00" d=" M 10.78 36.46 C 9.73 35.01 9.10 32.07 11.79 32.07 C 14.78 32.92 13.10 36.12 10.78 36.46 Z" />
<path   opacity="1.00" d=" M 19.02 36.54 C 16.94 35.87 16.06 32.09 18.93 32.22 C 21.66 32.29 20.61 35.56 19.02 36.54 Z" />
<path   opacity="1.00" d=" M 25.31 32.25 C 27.61 31.31 29.13 34.78 26.92 35.83 C 24.64 36.67 23.20 33.42 25.31 32.25 Z" />
<path   opacity="1.00" d=" M 32.21 32.46 C 34.54 30.65 36.74 35.09 33.97 35.77 C 32.05 36.75 30.70 33.70 32.21 32.46 Z" />
</svg>
