<?xml version="1.0" encoding="UTF-8" ?>
<!DOCTYPE svg PUBLIC "-//W3C//DTD SVG 1.1//EN" "http://www.w3.org/Graphics/SVG/1.1/DTD/svg11.dtd">
<svg width="46pt" height="46pt" viewBox="0 0 46 46" version="1.1" xmlns="http://www.w3.org/2000/svg">
<path   opacity="1.00" d=" M 21.13 0.00 L 24.67 0.00 C 35.71 0.66 45.21 10.11 46.00 21.12 L 46.00 24.67 C 45.34 35.71 35.89 45.21 24.88 46.00 L 21.34 46.00 C 10.29 45.35 0.79 35.90 0.00 24.88 L 0.00 21.33 C 0.65 10.29 10.11 0.79 21.13 0.00 M 17.46 4.64 C 10.59 6.66 5.17 12.81 4.07 19.89 C 2.79 27.05 6.11 34.71 12.11 38.77 C 17.58 42.64 25.13 43.28 31.15 40.35 C 37.11 37.59 41.42 31.60 42.07 25.06 C 42.86 18.42 39.80 11.54 34.41 7.60 C 29.65 4.01 23.16 2.87 17.46 4.64 Z" />
<path   opacity="1.00" d=" M 32.02 15.00 C 32.93 13.97 34.56 12.82 35.76 14.21 C 37.17 16.09 34.85 17.57 33.75 18.81 C 29.06 23.24 24.80 28.14 19.91 32.34 C 17.10 32.35 15.65 29.03 13.56 27.47 C 12.24 25.73 8.43 23.92 10.45 21.41 C 10.80 21.30 11.50 21.08 11.85 20.97 C 14.83 22.51 16.74 25.59 19.28 27.75 C 23.53 23.50 27.78 19.25 32.02 15.00 Z" />
</svg>
