<?xml version="1.0" encoding="UTF-8" ?>
<!DOCTYPE svg PUBLIC "-//W3C//DTD SVG 1.1//EN" "http://www.w3.org/Graphics/SVG/1.1/DTD/svg11.dtd">
<svg width="47pt" height="47pt" viewBox="0 0 47 47" version="1.1" xmlns="http://www.w3.org/2000/svg">
<path   opacity="1.00" d=" M 21.64 0.00 L 25.14 0.00 C 36.47 0.41 46.45 10.34 47.00 21.65 L 47.00 25.16 C 46.57 36.48 36.66 46.45 25.36 47.00 L 21.84 47.00 C 10.52 46.58 0.54 36.65 0.00 25.35 L 0.00 21.82 C 0.44 10.51 10.35 0.55 21.64 0.00 M 19.22 4.08 C 8.78 6.13 1.49 17.49 4.09 27.83 C 5.90 36.54 14.13 43.31 23.03 43.38 C 31.23 43.68 39.28 38.30 42.06 30.56 C 44.94 23.45 43.02 14.77 37.54 9.44 C 32.87 4.68 25.70 2.59 19.22 4.08 Z" />
<path   opacity="1.00" d=" M 14.29 16.75 C 13.63 15.15 15.31 13.54 16.88 14.37 C 19.25 16.39 21.23 18.82 23.60 20.85 C 25.78 18.70 27.79 16.36 30.12 14.36 C 31.69 13.56 33.37 15.15 32.71 16.76 C 30.74 19.13 28.41 21.17 26.17 23.28 C 28.08 25.81 30.65 27.73 32.67 30.16 C 33.52 31.96 31.57 33.51 29.95 32.55 C 27.69 30.48 25.73 28.11 23.35 26.16 C 21.26 28.27 19.29 30.52 17.08 32.52 C 15.48 33.57 13.45 31.96 14.34 30.15 C 16.36 27.72 18.94 25.82 20.83 23.27 C 18.58 21.17 16.26 19.12 14.29 16.75 Z" />
</svg>
