<?xml version="1.0" encoding="UTF-8" ?>
<!DOCTYPE svg PUBLIC "-//W3C//DTD SVG 1.1//EN" "http://www.w3.org/Graphics/SVG/1.1/DTD/svg11.dtd">
<svg width="48pt" height="48pt" viewBox="0 0 48 48" version="1.1" xmlns="http://www.w3.org/2000/svg">
<path  opacity="1.00" d=" M 18.28 1.15 C 25.47 -0.65 33.45 1.12 39.13 5.88 C 46.07 11.58 49.22 21.42 46.79 30.08 C 44.21 40.53 33.73 48.21 22.98 47.50 C 11.48 47.24 1.24 37.38 0.60 25.88 C -0.57 14.75 7.42 3.69 18.28 1.15 M 17.37 5.61 C 8.45 8.67 2.72 18.75 4.86 27.97 C 6.65 37.49 16.30 44.65 25.95 43.45 C 36.72 42.62 45.28 31.69 43.31 21.02 C 41.91 9.29 28.36 1.18 17.37 5.61 Z" />
<path  opacity="1.00" d=" M 23.37 8.33 C 25.54 7.52 27.29 11.17 24.92 11.96 C 22.62 13.57 20.51 9.14 23.37 8.33 Z" />
<path  opacity="1.00" d=" M 13.36 12.31 C 15.79 11.14 17.55 15.41 14.82 16.06 C 12.51 17.14 11.09 13.21 13.36 12.31 Z" />
<path  opacity="1.00" d=" M 26.73 18.42 C 29.23 16.49 30.98 12.84 34.19 12.30 C 34.58 12.69 35.35 13.48 35.73 13.87 C 34.99 17.04 31.57 18.78 29.62 21.25 C 30.53 24.50 29.36 28.64 25.81 29.64 C 21.51 31.25 16.75 26.47 18.37 22.16 C 19.37 18.64 23.52 17.55 26.73 18.42 M 23.97 26.36 C 25.65 25.61 27.09 23.06 24.81 22.04 C 21.74 21.25 21.33 25.50 23.97 26.36 Z" />
<path  opacity="1.00" d=" M 9.20 22.20 C 11.78 20.78 13.56 24.87 11.00 26.00 C 8.68 26.69 7.27 23.52 9.20 22.20 Z" />
<path  opacity="1.00" d=" M 36.02 23.11 C 36.57 20.96 39.99 22.06 39.70 24.05 C 39.88 25.67 37.86 25.84 36.81 26.32 C 36.50 25.29 35.11 24.20 36.02 23.11 Z" />
<path    opacity="1.00" d=" M 13.58 31.89 C 14.90 31.41 16.40 32.59 16.20 33.99 C 16.16 35.25 14.45 36.37 13.37 35.61 C 11.69 35.00 11.86 32.31 13.58 31.89 Z" />
<path    opacity="1.00" d=" M 32.34 32.30 C 34.17 30.48 37.19 33.50 35.21 35.18 C 33.45 37.21 30.47 34.17 32.34 32.30 Z" />
<path    opacity="1.00" d=" M 23.60 35.77 C 25.98 35.19 27.07 38.95 24.61 39.64 C 22.02 40.60 20.84 36.09 23.60 35.77 Z" />
</svg>
