<?xml version="1.0" encoding="UTF-8" ?>
<!DOCTYPE svg PUBLIC "-//W3C//DTD SVG 1.1//EN" "http://www.w3.org/Graphics/SVG/1.1/DTD/svg11.dtd">
<svg width="59pt" height="64pt" viewBox="0 0 59 64" version="1.1" xmlns="http://www.w3.org/2000/svg">
<path   opacity="1.00" d=" M 18.86 2.84 C 21.83 0.04 26.25 0.90 29.97 0.72 C 33.39 0.84 37.44 0.25 40.14 2.85 C 42.59 4.90 42.60 8.30 42.82 11.21 C 47.35 11.21 51.90 10.89 56.42 11.36 C 58.73 11.53 59.03 15.42 56.91 16.13 C 54.81 16.60 52.64 16.43 50.50 16.46 C 49.69 29.68 49.01 42.92 48.08 56.13 C 47.89 60.17 44.02 63.41 40.03 63.22 C 33.03 63.28 26.01 63.28 19.01 63.22 C 14.66 63.49 10.75 59.73 10.81 55.38 C 9.97 42.41 9.28 29.43 8.50 16.46 C 6.35 16.43 4.18 16.58 2.07 16.14 C -0.20 15.30 0.40 11.20 2.92 11.31 C 7.33 10.94 11.76 11.19 16.19 11.21 C 16.39 8.29 16.40 4.89 18.86 2.84 M 21.49 11.18 C 26.83 11.19 32.17 11.19 37.51 11.18 C 37.14 9.59 37.70 7.24 35.94 6.34 C 31.96 5.77 27.88 5.92 23.88 6.16 C 21.35 6.28 21.79 9.43 21.49 11.18 M 13.81 16.44 C 14.60 29.33 15.30 42.22 16.11 55.11 C 16.07 56.63 17.30 58.12 18.91 57.91 C 25.96 57.96 33.02 57.96 40.07 57.91 C 41.67 58.10 42.94 56.66 42.85 55.12 C 43.68 42.23 44.39 29.33 45.18 16.44 C 34.73 16.44 24.27 16.44 13.81 16.44 Z" />
</svg>
