<?xml version="1.0" encoding="utf-8"?>
<!-- Svg Vector Icons : http://www.onlinewebfonts.com/icon -->
<!DOCTYPE svg PUBLIC "-//W3C//DTD SVG 1.1//EN" "http://www.w3.org/Graphics/SVG/1.1/DTD/svg11.dtd">
<svg version="1.1" xmlns="http://www.w3.org/2000/svg" xmlns:xlink="http://www.w3.org/1999/xlink" x="0px" y="0px" viewBox="0 0 1000 1000" enable-background="new 0 0 1000 1000" xml:space="preserve">
<metadata> Svg Vector Icons : http://www.onlinewebfonts.com/icon </metadata>
<g><g transform="translate(0.000000,511.000000) scale(0.100000,-0.100000)"><path d="M338,4282.7c-68.2-27.7-166.1-119.3-204.4-193.8c-44.7-87.3-44.7-7869,0-7956.3C174-3944,272-4033.5,344.4-4061.2c42.6-17,917.9-23.4,2806.9-23.4c2423.5,0,2755.7,4.3,2823.9,31.9c106.5,44.7,153.3,89.5,200.2,191.7c36.2,78.8,40.5,157.6,40.5,1009.4c0,896.6-2.1,928.5-44.7,1018c-121.4,253.4-498.3,276.8-653.8,42.6l-57.5-87.3l-6.4-719.8l-6.4-719.8H3159.7H870.4V110.8v3428.7h2289.3h2289.4v-728.3c0-698.5,2.1-730.5,44.7-822c136.3-279,540.9-279,677.2,0c42.6,91.6,44.7,119.2,44.7,1045.6c0,809.3-4.3,964.7-31.9,1030.7c-42.6,102.2-87.3,151.2-185.3,200.2c-76.7,38.3-172.5,40.5-2843.1,38.3C1377.2,4304,372.1,4295.5,338,4282.7z"/><path d="M7706.5,2193.6c-110.7-31.9-183.1-91.6-232.1-193.8c-53.2-108.6-57.5-221.5-12.8-328c21.3-51.1,227.9-274.7,579.3-628.2l547.3-549.4H6137c-1680.3,0-2472.5-6.4-2513-23.4c-72.4-27.7-170.4-117.1-210.8-193.8c-38.3-74.5-38.3-257.7,0-332.2c40.4-76.7,138.4-166.1,210.8-193.8c40.5-17.1,832.7-23.4,2513-23.4h2451.2l-555.8-558c-428-432.3-560.1-579.2-581.4-643.1c-57.5-178.9,25.6-396.1,185.3-470.7c91.6-44.7,251.3-49,327.9-10.6c70.3,34.1,1867.7,1827.2,1906,1899.6c17.1,32,29.8,106.5,29.8,166.1c0,59.6-12.8,134.2-29.8,166.1C9834,345,8034.5,2140.3,7972.7,2172.3C7900.3,2206.3,7785.3,2217,7706.5,2193.6z"/></g></g>
</svg>