<?xml version="1.0" encoding="UTF-8" standalone="no"?>
<!-- Created with Inkscape (http://www.inkscape.org/) -->

<svg
   xmlns:dc="http://purl.org/dc/elements/1.1/"
   xmlns:cc="http://creativecommons.org/ns#"
   xmlns:rdf="http://www.w3.org/1999/02/22-rdf-syntax-ns#"
   xmlns:svg="http://www.w3.org/2000/svg"
   xmlns="http://www.w3.org/2000/svg"
   xmlns:sodipodi="http://sodipodi.sourceforge.net/DTD/sodipodi-0.dtd"
   xmlns:inkscape="http://www.inkscape.org/namespaces/inkscape"
   width="48"
   height="48"
   viewBox="0 0 12.7 12.7"
   version="1.1"
   id="svg8"
   inkscape:version="0.92.3 (2405546, 2018-03-11)"
   sodipodi:docname="home_in_progress.svg">
  <defs
     id="defs2" />
  <sodipodi:namedview
     id="base"
     pagecolor="#ffffff"
     bordercolor="#666666"
     borderopacity="1.0"
     inkscape:pageopacity="0.0"
     inkscape:pageshadow="2"
     inkscape:zoom="7.919596"
     inkscape:cx="23.259286"
     inkscape:cy="17.003601"
     inkscape:document-units="mm"
     inkscape:current-layer="layer1"
     showgrid="false"
     units="px"
     inkscape:snap-object-midpoints="true"
     inkscape:snap-center="true"
     inkscape:snap-text-baseline="true"
     inkscape:snap-page="true"
     inkscape:window-width="1366"
     inkscape:window-height="715"
     inkscape:window-x="-8"
     inkscape:window-y="-8"
     inkscape:window-maximized="1" />
  <metadata
     id="metadata5">
    <rdf:RDF>
      <cc:Work
         rdf:about="">
        <dc:format>image/svg+xml</dc:format>
        <dc:type
           rdf:resource="http://purl.org/dc/dcmitype/StillImage" />
        <dc:title></dc:title>
      </cc:Work>
    </rdf:RDF>
  </metadata>
  <g
     inkscape:label="Layer 1"
     inkscape:groupmode="layer"
     id="layer1"
     transform="translate(0,-284.29998)">
    <g
       id="g990"
       transform="matrix(0.019725,0,0,0.02001802,1.3003904,285.52537)"
       style="  ">
      <g
         id="g816"
         style="  ">
	<g
   id="g814"
   style="  ">
		<path
   id="path812"
   d="M 400.003,152 H 256.001 c -5.523,0 -10,4.477 -10,10 0,5.523 4.477,10 10,10 h 144.002 c 5.523,0 10,-4.477 10,-10 0,-5.523 -4.477,-10 -10,-10 z"
   inkscape:connector-curvature="0"
   style="  " />

	</g>

</g>
      <g
         id="g822"
         style="  ">
	<g
   id="g820"
   style="  ">
		<path
   id="path818"
   d="m 365.011,202.931 c -1.86,-1.86 -4.44,-2.93 -7.07,-2.93 -2.63,0 -5.21,1.07 -7.07,2.93 -1.86,1.86 -2.93,4.44 -2.93,7.07 0,2.63 1.07,5.21 2.93,7.07 1.86,1.86 4.44,2.93 7.07,2.93 2.63,0 5.21,-1.07 7.07,-2.93 1.86,-1.86 2.93,-4.44 2.93,-7.07 0,-2.63 -1.07,-5.21 -2.93,-7.07 z"
   inkscape:connector-curvature="0"
   style="  " />

	</g>

</g>
      <g
         id="g828"
         style="  ">
	<g
   id="g826"
   style="  ">
		<path
   id="path824"
   d="m 263.061,45.931 c -1.86,-1.86 -4.44,-2.93 -7.07,-2.93 -2.63,0 -5.21,1.07 -7.07,2.93 -1.86,1.86 -2.93,4.44 -2.93,7.07 0,2.63 1.07,5.21 2.93,7.07 1.86,1.86 4.44,2.93 7.07,2.93 2.63,0 5.21,-1.07 7.07,-2.93 1.86,-1.86 2.93,-4.44 2.93,-7.07 0,-2.63 -1.07,-5.21 -2.93,-7.07 z"
   inkscape:connector-curvature="0"
   style="  " />

	</g>

</g>
      <g
         id="g834"
         style="  ">
	<g
   id="g832"
   style="  ">
		<path
   id="path830"
   d="m 315.878,200 h -59.877 c -5.523,0 -10,4.477 -10,10 0,5.523 4.477,10 10,10 h 59.877 c 5.523,0 10,-4.477 10,-10 0,-5.523 -4.477,-10 -10,-10 z"
   inkscape:connector-curvature="0"
   style="  " />

	</g>

</g>
      <g
         id="g840"
         style="  ">
	<g
   id="g838"
   style="  ">
		<path
   id="path836"
   d="M 400.003,260 H 256.001 c -5.523,0 -10,4.477 -10,10 0,5.523 4.477,10 10,10 h 144.002 c 5.523,0 10,-4.477 10,-10 0,-5.523 -4.477,-10 -10,-10 z"
   inkscape:connector-curvature="0"
   style="  " />

	</g>

</g>
      <g
         id="g846"
         style="  ">
	<g
   id="g844"
   style="  ">
		<path
   id="path842"
   d="m 365.011,310.931 c -1.86,-1.86 -4.44,-2.93 -7.07,-2.93 -2.63,0 -5.21,1.07 -7.07,2.93 -1.86,1.86 -2.93,4.44 -2.93,7.07 0,2.63 1.07,5.21 2.93,7.07 1.86,1.86 4.44,2.93 7.07,2.93 2.63,0 5.21,-1.07 7.07,-2.93 1.86,-1.86 2.93,-4.44 2.93,-7.07 0,-2.63 -1.07,-5.21 -2.93,-7.07 z"
   inkscape:connector-curvature="0"
   style="  " />

	</g>

</g>
      <g
         id="g852"
         style="  ">
	<g
   id="g850"
   style="  ">
		<path
   id="path848"
   d="m 315.878,308 h -59.877 c -5.523,0 -10,4.477 -10,10 0,5.523 4.477,10 10,10 h 59.877 c 5.523,0 10,-4.477 10,-10 0,-5.523 -4.477,-10 -10,-10 z"
   inkscape:connector-curvature="0"
   style="  " />

	</g>

</g>
      <g
         id="g858"
         style="  ">
	<g
   id="g856"
   style="  ">
		<path
   id="path854"
   d="M 400.003,368 H 256.001 c -5.523,0 -10,4.477 -10,10 0,5.523 4.477,10 10,10 h 144.002 c 5.523,0 10,-4.477 10,-10 0,-5.523 -4.477,-10 -10,-10 z"
   inkscape:connector-curvature="0"
   style="  " />

	</g>

</g>
      <g
         id="g864"
         style="  ">
	<g
   id="g862"
   style="  ">
		<path
   id="path860"
   d="m 365.011,418.931 c -1.86,-1.86 -4.44,-2.93 -7.07,-2.93 -2.63,0 -5.21,1.07 -7.07,2.93 -1.86,1.86 -2.93,4.44 -2.93,7.07 0,2.63 1.07,5.21 2.93,7.07 1.86,1.86 4.44,2.93 7.07,2.93 2.63,0 5.21,-1.07 7.07,-2.93 1.86,-1.86 2.93,-4.44 2.93,-7.07 0,-2.63 -1.07,-5.21 -2.93,-7.07 z"
   inkscape:connector-curvature="0"
   style="  " />

	</g>

</g>
      <g
         id="g870"
         style="  ">
	<g
   id="g868"
   style="  ">
		<path
   id="path866"
   d="m 315.878,416 h -59.877 c -5.523,0 -10,4.477 -10,10 0,5.523 4.477,10 10,10 h 59.877 c 5.523,0 10,-4.477 10,-10 0,-5.523 -4.477,-10 -10,-10 z"
   inkscape:connector-curvature="0"
   style="  " />

	</g>

</g>
      <g
         id="g876"
         style="  ">
	<g
   id="g874"
   style="  ">
		<path
   id="path872"
   d="M 419.243,39.001 H 342.864 C 331.823,28.48 316.898,22 300.479,22 h -8.76 C 285.022,8.742 271.263,0 256,0 240.737,0 226.979,8.742 220.281,22 H 211.5 c -16.419,0 -31.343,6.48 -42.384,17.001 H 92.759 c -26.885,0 -48.758,21.873 -48.758,48.758 v 375.484 c 0,26.885 21.873,48.758 48.758,48.758 h 326.483 c 26.885,0 48.758,-21.873 48.758,-48.758 V 87.759 C 468.001,60.874 446.128,39.001 419.243,39.001 Z M 211.501,42 h 15.586 c 4.498,0 8.442,-3.003 9.639,-7.338 C 239.111,26.029 247.037,20 256.001,20 c 8.964,0 16.89,6.029 19.274,14.662 1.197,4.335 5.142,7.338 9.639,7.338 h 15.565 c 21.705,0 39.571,16.75 41.354,38.001 H 170.147 C 171.93,58.75 189.797,42 211.501,42 Z m 236.5,421.244 c 0,15.857 -12.901,28.758 -28.758,28.758 H 92.759 c -15.857,0 -28.758,-12.901 -28.758,-28.758 V 87.759 c 0,-15.857 12.901,-28.758 28.758,-28.758 h 62.347 c -3.276,7.512 -5.105,15.794 -5.105,24.5 v 6.5 c 0,5.523 4.477,10 10,10 H 351.98 c 5.523,0 10,-4.477 10,-10 v -6.5 c 0,-8.705 -1.829,-16.988 -5.105,-24.5 h 62.368 c 15.857,0 28.758,12.901 28.758,28.758 z"
   inkscape:connector-curvature="0"
   style="  " />

	</g>

</g>
      <g
         id="g882"
         style="  ">
	<g
   id="g880"
   style="  ">
		<path
   id="path878"
   d="m 192.41,149.596 c -3.905,-3.905 -10.237,-3.905 -14.142,-0.001 l -42.762,42.763 -13.173,-13.174 c -3.905,-3.904 -10.237,-3.904 -14.143,0 -3.905,3.905 -3.905,10.237 0,14.143 l 20.245,20.245 c 1.953,1.953 4.512,2.929 7.071,2.929 2.559,0 5.119,-0.976 7.071,-2.929 l 49.833,-49.833 c 3.905,-3.905 3.905,-10.237 0,-14.143 z"
   inkscape:connector-curvature="0"
   style="  " />

	</g>

</g>
      <g
         id="g888"
         style="  ">
	<g
   id="g886"
   style="  ">
		<path
   id="path884"
   d="m 168.001,368 h -48 c -5.523,0 -10,4.477 -10,10 v 48 c 0,5.523 4.477,10 10,10 h 48 c 5.523,0 10,-4.477 10,-10 v -48 c 0,-5.523 -4.477,-10 -10,-10 z m -10,48 h -28 v -28 h 28 z"
   inkscape:connector-curvature="0"
   style="  " />

	</g>

</g>
      <g
         id="g894"
         style="  ">
	<g
   id="g892"
   style="  ">
		<path
   id="path890"
   d="m 168.001,260 h -48 c -5.523,0 -10,4.477 -10,10 v 48 c 0,5.523 4.477,10 10,10 h 48 c 5.523,0 10,-4.477 10,-10 v -48 c 0,-5.523 -4.477,-10 -10,-10 z m -10,48 h -28 v -28 h 28 z"
   inkscape:connector-curvature="0"
   style="  " />

	</g>

</g>
      <g
         id="g896"
         style="  ">
</g>
      <g
         id="g898"
         style="  ">
</g>
      <g
         id="g900"
         style="  ">
</g>
      <g
         id="g902"
         style="  ">
</g>
      <g
         id="g904"
         style="  ">
</g>
      <g
         id="g906"
         style="  ">
</g>
      <g
         id="g908"
         style="  ">
</g>
      <g
         id="g910"
         style="  ">
</g>
      <g
         id="g912"
         style="  ">
</g>
      <g
         id="g914"
         style="  ">
</g>
      <g
         id="g916"
         style="  ">
</g>
      <g
         id="g918"
         style="  ">
</g>
      <g
         id="g920"
         style="  ">
</g>
      <g
         id="g922"
         style="  ">
</g>
      <g
         id="g924"
         style="  ">
</g>
    </g>
  </g>
</svg>
