<?xml version="1.0" encoding="UTF-8" ?>
<!DOCTYPE svg PUBLIC "-//W3C//DTD SVG 1.1//EN" "http://www.w3.org/Graphics/SVG/1.1/DTD/svg11.dtd">
<svg width="56pt" height="56pt" viewBox="0 0 56 56" version="1.1" xmlns="http://www.w3.org/2000/svg">
<path    opacity="1.00" d=" M 13.67 0.00 L 42.13 0.00 C 49.28 0.51 55.36 6.56 56.00 13.68 L 56.00 42.13 C 55.49 49.28 49.45 55.35 42.33 56.00 L 13.87 56.00 C 6.72 55.49 0.64 49.44 0.00 42.32 L 0.00 13.87 C 0.51 6.73 6.55 0.65 13.67 0.00 M 10.46 5.66 C 6.98 7.36 4.57 11.08 4.59 14.98 C 4.54 23.66 4.54 32.34 4.59 41.02 C 4.50 46.54 9.45 51.49 14.97 51.41 C 23.67 51.45 32.37 51.46 41.06 51.41 C 46.57 51.47 51.49 46.53 51.41 41.02 C 51.45 32.35 51.45 23.67 51.41 14.99 C 51.50 9.47 46.56 4.51 41.03 4.59 C 33.36 4.51 25.68 4.61 18.00 4.55 C 15.46 4.56 12.78 4.42 10.46 5.66 Z" />
<path    opacity="1.00" d=" M 40.44 12.31 C 42.43 9.86 46.15 13.57 43.68 15.55 C 41.73 17.57 38.44 14.32 40.44 12.31 Z" />
<path    opacity="1.00" d=" M 24.47 15.83 C 31.50 13.51 39.72 18.66 40.55 26.05 C 42.01 33.74 34.82 41.41 27.04 40.42 C 20.02 40.04 14.43 32.98 15.65 26.06 C 16.28 21.33 19.88 17.16 24.47 15.83 M 26.23 20.14 C 20.03 21.30 17.98 30.24 23.00 34.02 C 27.19 37.80 34.69 35.39 35.84 29.85 C 37.54 24.31 31.78 18.49 26.23 20.14 Z" />
</svg>
