<?xml version="1.0" encoding="UTF-8" ?>
<!DOCTYPE svg PUBLIC "-//W3C//DTD SVG 1.1//EN" "http://www.w3.org/Graphics/SVG/1.1/DTD/svg11.dtd">
<svg width="69pt" height="78pt" viewBox="0 0 69 78" version="1.1" xmlns="http://www.w3.org/2000/svg">
<path    opacity="1.00" d=" M 26.56 5.79 C 37.44 1.69 50.66 6.48 56.56 16.45 C 61.79 24.88 61.39 36.46 55.38 44.40 C 52.76 47.89 50.61 51.78 49.57 56.05 C 49.09 57.85 48.52 60.71 46.00 60.37 C 38.35 60.43 30.70 60.56 23.06 60.34 C 22.68 60.05 21.92 59.47 21.54 59.18 C 19.97 54.46 18.60 49.53 15.42 45.57 C 11.06 40.11 9.03 32.87 10.04 25.95 C 11.21 16.82 17.94 8.84 26.56 5.79 M 23.70 13.66 C 15.24 19.38 12.80 32.15 18.79 40.49 C 22.00 44.80 24.58 49.56 26.05 54.75 C 28.10 54.75 30.14 54.75 32.18 54.75 C 32.04 49.57 32.52 44.34 31.89 39.19 C 29.67 36.07 26.31 33.96 24.13 30.81 C 22.81 28.71 25.74 25.83 27.84 27.12 C 30.47 29.13 32.61 31.70 35.01 33.97 C 37.39 31.69 39.50 29.09 42.18 27.12 C 44.27 25.78 47.12 28.75 45.86 30.83 C 43.62 33.92 40.42 36.14 38.05 39.12 C 37.48 44.27 38.02 49.49 37.76 54.67 C 39.81 54.70 41.86 54.84 43.92 54.74 C 44.87 51.61 46.07 48.55 47.73 45.72 C 49.53 42.40 52.34 39.64 53.52 35.99 C 56.27 28.00 53.26 18.33 46.18 13.61 C 39.67 8.85 30.23 9.06 23.70 13.66 Z" />
<path    opacity="1.00" d=" M 22.26 66.35 C 29.08 65.39 36.09 66.22 42.98 65.99 C 44.83 66.19 47.47 65.32 48.59 67.31 C 49.99 69.18 48.18 71.87 45.96 71.60 C 38.41 71.62 30.84 71.74 23.29 71.51 C 20.80 71.46 20.15 67.46 22.26 66.35 Z" />
</svg>
