<?xml version="1.0" encoding="UTF-8" ?>
<!DOCTYPE svg PUBLIC "-//W3C//DTD SVG 1.1//EN" "http://www.w3.org/Graphics/SVG/1.1/DTD/svg11.dtd">
<svg width="51pt" height="52pt" viewBox="0 0 51 52" version="1.1" xmlns="http://www.w3.org/2000/svg">
<path    opacity="1.00" d=" M 0.00 24.68 C 0.56 11.44 12.64 0.02 25.95 0.58 C 38.89 0.51 50.34 11.66 51.00 24.52 L 51.00 28.01 C 50.40 40.37 39.88 51.14 27.52 52.00 L 23.88 52.00 C 11.22 51.40 0.38 40.24 0.00 27.60 L 0.00 24.68 M 19.47 6.71 C 12.23 8.92 6.59 15.45 5.43 22.93 C 4.01 30.79 7.76 39.24 14.48 43.53 C 20.16 47.28 27.77 47.88 33.93 44.95 C 40.18 42.13 44.75 35.97 45.65 29.17 C 46.78 21.82 43.47 14.02 37.43 9.69 C 32.35 5.94 25.48 4.77 19.47 6.71 Z" />
<path    opacity="1.00" d=" M 23.28 17.02 C 25.10 15.21 28.28 17.59 27.33 19.91 C 26.45 21.38 25.09 22.46 23.92 23.69 C 27.59 23.74 31.26 23.57 34.92 23.75 C 37.65 24.05 37.69 28.43 35.00 28.83 C 31.29 28.98 27.58 28.81 23.87 28.89 C 25.08 30.23 26.70 31.30 27.41 33.01 C 28.01 35.21 25.14 37.18 23.40 35.70 C 20.75 33.32 18.36 30.69 15.86 28.17 C 14.63 27.15 14.86 25.19 16.03 24.23 C 18.41 21.79 20.78 19.34 23.28 17.02 Z" />
</svg>
