<?xml version="1.0" encoding="UTF-8" ?>
<!DOCTYPE svg PUBLIC "-//W3C//DTD SVG 1.1//EN" "http://www.w3.org/Graphics/SVG/1.1/DTD/svg11.dtd">
<svg width="60pt" height="72pt" viewBox="0 0 60 72" version="1.1" xmlns="http://www.w3.org/2000/svg">
<path    opacity="1.00" d=" M 12.30 6.66 C 12.48 4.54 12.18 1.16 15.09 0.90 C 18.45 0.61 18.39 4.41 18.53 6.76 C 21.31 6.74 24.09 6.74 26.88 6.78 C 27.02 4.58 26.84 0.89 29.97 0.91 C 33.20 0.85 32.93 4.55 33.15 6.79 C 35.93 6.74 38.71 6.74 41.49 6.76 C 41.56 4.45 41.58 0.54 44.92 0.92 C 47.87 1.15 47.45 4.53 47.71 6.66 C 50.37 6.86 53.33 6.64 55.56 8.39 C 58.01 10.07 59.30 13.08 59.24 16.00 C 59.31 31.33 59.20 46.66 59.19 61.99 C 59.57 66.95 54.97 71.44 50.03 71.06 C 36.68 71.07 23.33 71.07 9.98 71.05 C 6.82 71.18 3.63 69.58 2.02 66.83 C 0.56 64.52 0.80 61.66 0.73 59.04 C 0.84 44.03 0.57 29.01 0.94 14.01 C 1.62 8.60 7.38 6.10 12.30 6.66 M 7.48 13.48 C 6.45 14.75 6.80 16.53 6.66 18.04 C 6.59 32.03 6.64 46.02 6.63 60.01 C 6.68 61.83 6.49 64.84 9.00 65.01 C 20.32 65.43 31.68 65.05 43.02 65.19 C 45.94 65.09 48.93 65.50 51.80 64.81 C 53.65 63.95 53.20 61.62 53.37 59.97 C 53.15 44.99 53.53 30.00 53.17 15.03 C 52.97 12.30 49.64 12.85 47.75 12.47 C 47.40 14.63 48.02 18.14 44.99 18.50 C 41.60 18.96 41.56 15.03 41.48 12.69 C 38.70 12.69 35.92 12.70 33.14 12.67 C 32.94 14.17 33.00 15.73 32.49 17.17 C 31.47 18.95 28.51 19.01 27.50 17.17 C 26.97 15.74 27.07 14.17 26.87 12.68 C 24.09 12.69 21.31 12.69 18.52 12.69 C 18.41 15.07 18.44 18.85 15.03 18.56 C 12.04 18.14 12.52 14.63 12.26 12.47 C 10.68 12.79 8.86 12.50 7.48 13.48 Z" />
<path    opacity="1.00" d=" M 15.23 27.29 C 23.80 27.02 32.38 27.28 40.96 27.17 C 42.68 27.24 44.50 26.99 46.15 27.65 C 48.56 28.74 47.68 33.00 45.03 32.97 C 35.01 33.21 24.97 33.18 14.94 32.99 C 11.58 32.98 11.73 26.95 15.23 27.29 Z" />
<path    opacity="1.00" d=" M 14.16 39.17 C 24.40 38.52 34.74 38.97 45.01 39.02 C 48.47 39.02 48.28 44.96 44.75 44.71 C 34.88 44.97 24.99 44.77 15.12 44.70 C 12.21 44.90 11.43 39.98 14.16 39.17 Z" />
<path    opacity="1.00" d=" M 13.27 51.36 C 14.97 50.35 17.12 50.80 19.01 50.59 C 27.66 50.60 36.33 50.43 44.97 50.67 C 48.35 50.64 48.35 56.31 45.05 56.34 C 35.05 56.47 25.03 56.68 15.04 56.36 C 12.55 56.41 11.60 52.95 13.27 51.36 Z" />
</svg>
