<?xml version="1.0" encoding="UTF-8" ?>
<!DOCTYPE svg PUBLIC "-//W3C//DTD SVG 1.1//EN" "http://www.w3.org/Graphics/SVG/1.1/DTD/svg11.dtd">
<svg width="65pt" height="56pt" viewBox="0 0 65 56" version="1.1" xmlns="http://www.w3.org/2000/svg">
<path    opacity="1.00" d=" M 0.00 11.46 C 0.19 6.20 4.43 1.00 9.92 0.96 C 24.60 0.59 39.30 0.78 53.98 0.78 C 59.65 0.53 64.51 5.39 65.00 10.90 L 65.00 44.30 C 64.97 50.14 59.92 55.46 53.98 55.19 C 39.65 55.29 25.31 55.29 10.99 55.19 C 5.35 55.46 0.49 50.62 0.00 45.13 L 0.00 11.46 M 7.64 7.07 C 14.18 13.93 20.98 20.53 27.57 27.34 C 28.91 28.55 30.10 30.26 32.04 30.50 C 34.11 30.87 35.52 29.10 36.85 27.84 C 43.65 20.84 50.78 14.17 57.37 6.96 C 55.60 6.61 53.83 6.19 52.02 6.23 C 38.67 6.27 25.32 6.22 11.98 6.30 C 10.49 6.24 9.06 6.72 7.64 7.07 M 5.56 12.96 C 5.44 23.77 5.57 34.58 5.57 45.38 C 10.62 39.66 15.64 33.89 20.64 28.11 C 15.60 23.07 10.61 17.99 5.56 12.96 M 44.36 28.11 C 49.36 33.90 54.38 39.67 59.43 45.41 C 59.43 34.59 59.51 23.77 59.45 12.95 C 54.39 17.98 49.40 23.08 44.36 28.11 M 33.05 36.14 C 29.63 36.52 26.74 34.37 24.39 32.17 C 19.39 38.00 14.32 43.76 9.34 49.61 C 24.76 49.81 40.18 49.86 55.60 49.55 C 50.68 43.68 45.50 38.02 40.62 32.12 C 38.48 34.04 36.10 36.13 33.05 36.14 Z" />
</svg>
