<?xml version="1.0" encoding="UTF-8" ?>
<!DOCTYPE svg PUBLIC "-//W3C//DTD SVG 1.1//EN" "http://www.w3.org/Graphics/SVG/1.1/DTD/svg11.dtd">
<svg width="131pt" height="100pt" viewBox="0 0 131 100" version="1.1" xmlns="http://www.w3.org/2000/svg">
<path    opacity="1.00" d=" M 15.68 0.00 L 131.00 0.00 L 131.00 84.31 C 125.81 84.31 120.63 84.31 115.44 84.32 C 115.40 89.54 115.55 94.77 115.32 100.00 L 0.00 100.00 L 0.00 15.69 C 5.19 15.69 10.37 15.69 15.56 15.68 C 15.60 10.46 15.45 5.23 15.68 0.00 M 23.31 8.13 C 23.31 10.65 23.32 13.17 23.32 15.69 C 54.02 15.69 84.73 15.68 115.44 15.69 C 115.44 36.00 115.44 56.31 115.44 76.62 C 118.06 76.64 120.69 76.62 123.32 76.60 C 123.30 53.78 123.32 30.95 123.31 8.13 C 89.98 8.12 56.64 8.12 23.31 8.13 M 7.68 23.40 C 7.70 46.22 7.68 69.05 7.69 91.87 C 41.02 91.87 74.36 91.88 107.69 91.87 C 107.68 69.04 107.69 46.21 107.68 23.38 C 74.35 23.39 41.02 23.35 7.68 23.40 Z" />
<path    opacity="1.00" d=" M 23.26 30.95 C 46.29 30.92 69.33 30.94 92.36 30.94 C 92.60 33.07 91.84 35.68 93.50 37.39 C 95.24 39.10 97.87 38.39 100.07 38.59 C 100.05 51.29 100.07 63.99 100.06 76.68 C 97.93 76.83 95.38 76.14 93.64 77.71 C 91.81 79.39 92.60 82.13 92.36 84.31 C 69.33 84.31 46.30 84.32 23.27 84.31 C 23.03 82.19 23.87 79.54 22.15 77.87 C 20.44 76.10 17.74 76.84 15.55 76.66 C 15.57 63.97 15.56 51.27 15.56 38.58 C 18.00 38.40 21.25 39.18 22.73 36.65 C 23.57 34.88 23.16 32.84 23.26 30.95 M 30.40 38.64 C 29.10 41.81 26.57 44.32 23.40 45.61 C 23.26 53.60 23.30 61.59 23.36 69.58 C 26.54 70.91 29.09 73.43 30.42 76.63 C 48.70 76.58 66.99 76.71 85.27 76.56 C 86.57 73.38 89.12 70.89 92.30 69.60 C 92.32 61.62 92.30 53.65 92.31 45.68 C 89.14 44.31 86.58 41.83 85.23 38.63 C 66.95 38.63 48.68 38.62 30.40 38.64 Z" />
<path    opacity="1.00" d=" M 56.21 46.32 C 62.98 45.11 69.84 51.14 69.32 58.05 C 69.30 65.16 61.64 70.72 54.85 68.65 C 48.32 67.17 44.41 59.31 47.21 53.21 C 48.71 49.53 52.27 46.83 56.21 46.32 M 56.12 54.24 C 53.80 55.36 53.28 58.83 55.36 60.45 C 57.47 62.55 61.44 60.88 61.61 57.97 C 61.98 55.17 58.60 52.86 56.12 54.24 Z" />
<path    opacity="1.00" d=" M 29.34 57.63 C 31.15 55.82 32.95 54.01 34.76 52.20 C 36.62 53.98 38.47 55.78 40.28 57.61 C 38.38 59.41 36.66 61.40 34.59 63.02 C 32.92 61.15 31.12 59.40 29.34 57.63 Z" />
<path    opacity="1.00" d=" M 75.41 57.64 C 77.19 55.80 79.00 53.98 80.84 52.20 C 82.68 53.99 84.51 55.79 86.32 57.60 C 84.50 59.42 82.67 61.21 80.87 63.06 C 79.03 61.27 77.22 59.46 75.41 57.64 Z" />
</svg>
