<?xml version="1.0" encoding="UTF-8" ?>
<!DOCTYPE svg PUBLIC "-//W3C//DTD SVG 1.1//EN" "http://www.w3.org/Graphics/SVG/1.1/DTD/svg11.dtd">
<svg width="63pt" height="64pt" viewBox="0 0 63 64" version="1.1" xmlns="http://www.w3.org/2000/svg">
<path    opacity="1.00" d=" M 11.68 1.70 C 12.85 0.79 14.35 0.15 15.63 1.30 C 21.91 5.52 26.39 12.48 27.44 19.99 C 26.57 23.46 21.42 24.81 22.13 28.80 C 24.17 32.33 27.63 34.73 30.29 37.76 C 31.93 39.27 33.46 41.70 35.99 41.48 C 39.01 40.70 40.28 37.28 43.10 36.10 C 50.05 36.79 56.41 40.87 60.76 46.23 C 61.58 47.39 62.67 48.57 62.63 50.09 C 56.83 60.93 42.57 66.14 31.10 61.78 C 23.17 59.16 18.25 52.05 12.38 46.59 C 7.81 42.21 3.16 37.45 1.53 31.12 C -1.79 20.46 2.51 8.05 11.68 1.70 M 6.70 29.53 C 8.35 35.97 13.91 40.05 18.23 44.69 C 23.06 49.20 27.20 55.20 33.97 56.90 C 42.11 59.54 51.25 56.19 56.58 49.69 C 53.43 45.98 49.27 43.26 44.64 41.76 C 42.08 44.45 38.97 47.42 34.91 46.94 C 29.99 46.70 27.16 42.17 23.89 39.13 C 20.89 35.88 16.40 32.96 16.53 27.99 C 16.28 24.11 19.18 21.26 21.75 18.81 C 20.38 14.12 17.61 9.96 13.96 6.73 C 7.36 12.10 4.10 21.30 6.70 29.53 Z" />
<path    opacity="1.00" d=" M 31.14 1.18 C 42.32 -0.94 53.98 5.88 59.20 15.71 C 61.65 20.36 62.82 25.69 62.51 30.94 C 62.57 33.03 59.64 34.21 58.12 32.82 C 56.80 31.62 57.29 29.62 57.00 28.05 C 56.81 18.28 49.35 9.35 39.97 6.93 C 37.38 6.22 34.67 6.36 32.04 6.00 C 29.83 5.56 29.52 2.48 31.14 1.18 Z" />
<path    opacity="1.00" d=" M 34.39 14.55 C 42.20 12.60 50.13 20.32 49.07 28.15 C 49.12 30.45 45.76 31.46 44.25 29.88 C 43.25 27.17 43.85 23.69 41.39 21.67 C 39.38 19.62 36.27 20.17 33.80 19.21 C 32.34 18.06 32.53 15.19 34.39 14.55 Z" />
</svg>
