<?xml version="1.0" encoding="UTF-8" ?>
<!DOCTYPE svg PUBLIC "-//W3C//DTD SVG 1.1//EN" "http://www.w3.org/Graphics/SVG/1.1/DTD/svg11.dtd">
<svg width="79pt" height="87pt" viewBox="0 0 79 87" version="1.1" xmlns="http://www.w3.org/2000/svg">
<path fill="#ffffff" opacity="1.00" d=" M 33.40 7.63 C 41.58 5.62 50.74 8.28 56.40 14.56 C 62.74 21.25 64.32 31.89 60.20 40.14 C 55.83 49.05 47.40 54.91 41.96 63.07 C 41.12 64.69 39.09 66.10 37.38 64.73 C 34.84 61.57 32.59 58.18 29.72 55.29 C 23.54 48.63 16.29 41.51 15.71 31.87 C 14.65 20.86 22.64 10.01 33.40 7.63 M 25.93 17.96 C 20.68 23.36 19.58 32.22 23.34 38.74 C 27.41 45.94 34.06 51.15 39.00 57.70 C 44.34 50.56 51.97 45.07 55.70 36.79 C 59.33 28.68 55.32 18.43 47.44 14.51 C 40.55 10.78 31.28 12.18 25.93 17.96 Z" />
<path fill="#ffffff" opacity="1.00" d=" M 34.28 18.52 C 41.44 15.38 50.46 20.45 51.53 28.17 C 51.84 30.47 52.19 34.50 48.91 34.67 C 46.33 34.82 45.98 31.96 46.13 30.06 C 46.36 24.72 39.53 21.14 35.20 24.18 C 30.84 26.62 30.64 33.56 34.87 36.23 C 36.87 37.89 39.60 37.15 41.89 37.92 C 43.85 39.07 43.26 42.48 40.99 42.84 C 34.53 44.07 27.74 39.35 26.55 32.89 C 25.22 27.05 28.69 20.64 34.28 18.52 Z" />
<path fill="#ffffff" opacity="1.00" d=" M 18.47 58.77 C 20.28 58.26 22.11 57.65 24.00 57.67 C 26.03 58.10 26.84 60.94 25.28 62.31 C 22.61 64.30 17.42 63.30 16.05 66.58 C 23.15 70.02 31.25 70.41 39.01 70.56 C 46.75 70.41 54.83 70.02 61.92 66.60 C 62.13 65.21 60.57 65.03 59.63 64.59 C 57.54 63.86 55.36 63.45 53.27 62.71 C 50.71 61.52 52.10 57.09 54.90 57.69 C 58.83 58.41 62.94 59.47 66.08 62.06 C 68.35 63.84 68.71 67.48 66.65 69.56 C 63.46 72.81 58.75 73.77 54.47 74.70 C 44.49 76.43 34.21 76.44 24.22 74.83 C 19.92 73.97 15.33 73.04 11.90 70.12 C 10.02 68.55 9.30 65.60 10.71 63.49 C 12.44 60.85 15.61 59.73 18.47 58.77 Z" />
</svg>
