<?xml version="1.0" encoding="UTF-8" ?>
<!DOCTYPE svg PUBLIC "-//W3C//DTD SVG 1.1//EN" "http://www.w3.org/Graphics/SVG/1.1/DTD/svg11.dtd">
<svg width="43pt" height="43pt" viewBox="0 0 43 43" version="1.1" xmlns="http://www.w3.org/2000/svg">
<path    opacity="1.00" d=" M 0.00 19.98 C 0.50 8.56 11.43 -1.08 22.88 0.29 C 28.87 0.45 33.61 4.55 36.96 9.15 C 36.90 6.75 36.82 4.34 37.10 1.95 C 37.85 -0.36 41.61 -0.39 42.23 2.04 C 42.50 7.02 42.47 12.04 42.26 17.02 C 41.79 19.52 38.85 19.01 36.99 19.10 C 33.05 18.92 29.10 19.33 25.18 18.89 C 23.03 18.06 22.97 14.68 25.11 13.78 C 27.70 13.38 30.34 13.56 32.95 13.55 C 30.75 10.58 28.24 7.48 24.55 6.40 C 17.84 4.38 10.27 8.10 7.21 14.27 C 3.67 20.89 5.80 29.81 11.93 34.13 C 17.72 38.53 26.57 37.85 31.62 32.63 C 33.92 30.61 34.76 27.61 36.30 25.08 C 37.92 23.43 40.90 24.81 40.95 27.04 C 38.78 37.02 28.14 44.09 18.09 42.47 C 8.48 41.34 0.70 32.76 0.00 23.19 L 0.00 19.98 Z" />
</svg>
