<?xml version="1.0" encoding="UTF-8" ?>
<!DOCTYPE svg PUBLIC "-//W3C//DTD SVG 1.1//EN" "http://www.w3.org/Graphics/SVG/1.1/DTD/svg11.dtd">
<svg width="51pt" height="52pt" viewBox="0 0 51 52" version="1.1" xmlns="http://www.w3.org/2000/svg">
<path    opacity="1.00" d=" M 0.00 24.48 C 0.68 11.66 12.10 0.53 25.01 0.58 C 38.28 0.01 50.33 11.33 51.00 24.52 L 51.00 27.70 C 50.56 40.22 39.90 51.23 27.38 52.00 L 23.57 52.00 C 11.27 51.20 0.79 40.58 0.00 28.31 L 0.00 24.48 M 19.46 6.72 C 12.95 8.70 7.69 14.19 5.91 20.75 C 3.72 28.19 6.28 36.73 12.16 41.77 C 17.42 46.46 25.20 48.09 31.87 45.77 C 39.11 43.45 44.62 36.73 45.64 29.22 C 46.77 21.85 43.48 14.01 37.41 9.69 C 32.34 5.93 25.47 4.78 19.46 6.72 Z" />
<path    opacity="1.00" d=" M 23.70 19.95 C 22.91 17.95 24.94 15.86 26.96 16.49 C 29.55 18.41 31.59 20.95 33.95 23.15 C 35.10 24.26 36.76 25.91 35.58 27.61 C 33.04 30.40 30.40 33.14 27.61 35.67 C 25.85 37.24 22.92 35.14 23.60 32.93 C 24.39 31.29 25.92 30.18 27.14 28.88 C 23.44 28.81 19.74 29.01 16.04 28.81 C 13.34 28.51 13.33 24.11 16.02 23.77 C 19.70 23.55 23.39 23.75 27.08 23.69 C 25.90 22.49 24.59 21.38 23.70 19.95 Z" />
</svg>
