<?xml version="1.0" encoding="UTF-8" ?>
<!DOCTYPE svg PUBLIC "-//W3C//DTD SVG 1.1//EN" "http://www.w3.org/Graphics/SVG/1.1/DTD/svg11.dtd">
<svg width="51pt" height="52pt" viewBox="0 0 51 52" version="1.1" xmlns="http://www.w3.org/2000/svg">
<path  opacity="1.00" d=" M 10.58 3.54 C 17.97 -0.75 27.91 0.03 34.51 5.47 C 43.77 12.47 44.80 27.21 36.86 35.61 C 41.21 39.83 45.53 44.07 49.81 48.36 C 51.43 49.78 48.64 52.23 47.39 50.56 C 43.06 46.37 38.80 42.11 34.49 37.89 C 28.82 42.12 21.17 43.68 14.41 41.36 C 6.64 38.92 0.80 31.65 0.00 23.55 L 0.00 19.66 C 0.71 13.00 4.70 6.78 10.58 3.54 M 16.51 4.65 C 7.77 6.73 1.62 16.20 3.64 25.02 C 5.34 34.56 15.81 41.13 25.16 38.70 C 34.31 36.84 40.86 26.90 38.51 17.76 C 36.57 8.21 25.83 1.87 16.51 4.65 Z" />
</svg>
