<?xml version="1.0" encoding="iso-8859-1"?>
<!-- Generator: Adobe Illustrator 19.0.0, SVG Export Plug-In . SVG Version: 6.00 Build 0)  -->
<svg version="1.1" id="Layer_1" xmlns="http://www.w3.org/2000/svg" xmlns:xlink="http://www.w3.org/1999/xlink" x="0px" y="0px"
	 viewBox="0 0 511.997 511.997" style="enable-background:new 0 0 511.997 511.997;" xml:space="preserve">
<g>
	<g>
		<g>
			<path d="M480,42.667h-42.668c-14.136,0-26.155,9.219-30.376,21.958c-18.844,2.842-24.595,14.742-27.417,25.282l-10.206,38.087
				H10.667c-3.316,0-6.444,1.542-8.463,4.173c-2.019,2.631-2.699,6.051-1.841,9.254l11.432,42.668
				c1.25,4.663,5.475,7.906,10.303,7.906h8.966l26.466,98.762c0.024,0.093,0.059,0.18,0.085,0.271
				c0.048,0.159,0.095,0.32,0.15,0.476c0.061,0.175,0.129,0.344,0.198,0.512c0.05,0.123,0.096,0.246,0.15,0.367
				c0.27,0.603,0.592,1.169,0.959,1.697c0.02,0.027,0.041,0.053,0.06,0.08c0.167,0.237,0.344,0.465,0.528,0.685
				c0.051,0.061,0.105,0.118,0.156,0.178c0.158,0.18,0.322,0.355,0.491,0.524c0.073,0.071,0.146,0.143,0.22,0.212
				c0.157,0.148,0.319,0.29,0.484,0.427c0.087,0.074,0.176,0.148,0.267,0.219c0.164,0.128,0.334,0.249,0.506,0.366
				c0.095,0.067,0.188,0.137,0.286,0.198c0.253,0.162,0.512,0.315,0.778,0.455c0.114,0.062,0.236,0.112,0.352,0.17
				c0.172,0.082,0.344,0.164,0.518,0.239c0.127,0.053,0.255,0.1,0.383,0.148c0.186,0.068,0.371,0.133,0.559,0.193
				c0.115,0.035,0.232,0.07,0.349,0.103c0.238,0.065,0.477,0.121,0.721,0.17c0.073,0.015,0.146,0.033,0.219,0.046
				c0.356,0.065,0.715,0.112,1.079,0.14l251.14,20.304l-6.001,22.392H84.982c-5.891,0-10.667,4.776-10.667,10.667
				c0,5.891,4.775,10.667,10.667,10.667h29.529l-5.939,22.171c-19.512,3.917-34.256,21.181-34.256,41.829
				c0,23.527,19.14,42.668,42.666,42.668c0.035,0,0.068-0.003,0.104-0.003h53.231c5.891,0,10.667-4.775,10.667-10.667
				c0-5.89-4.775-10.667-10.667-10.667h-16.407c3.642-6.28,5.74-13.564,5.74-21.331c0-18.874-12.323-34.913-29.342-40.524
				l6.29-23.476h132.141l6.29,23.477c-17.016,5.612-29.339,21.651-29.339,40.523c0,23.527,19.14,42.668,42.668,42.668
				c0.033,0,0.067-0.003,0.102-0.003h106.564c5.891,0,10.667-4.775,10.667-10.667c0-5.89-4.775-10.667-10.667-10.667h-69.738
				c3.643-6.281,5.739-13.564,5.739-21.331c0-20.648-14.746-37.914-34.26-41.83l-5.939-22.169h29.495
				c0.015,0,0.027,0.003,0.041,0.003c0.342,0,0.685-0.022,1.022-0.055c0.079-0.007,0.157-0.02,0.236-0.029
				c0.244-0.029,0.485-0.065,0.724-0.111c0.119-0.022,0.239-0.048,0.355-0.074c0.192-0.044,0.381-0.093,0.571-0.147
				c0.134-0.038,0.269-0.075,0.401-0.118c0.17-0.055,0.336-0.119,0.502-0.183c0.134-0.052,0.272-0.099,0.404-0.156
				c0.268-0.115,0.53-0.243,0.788-0.379c0.133-0.071,0.262-0.153,0.394-0.23c0.144-0.084,0.288-0.169,0.428-0.259
				c0.122-0.08,0.241-0.165,0.361-0.251c0.145-0.103,0.287-0.208,0.426-0.319c0.107-0.084,0.209-0.169,0.313-0.256
				c0.15-0.128,0.295-0.262,0.439-0.4c0.083-0.08,0.169-0.158,0.25-0.242c0.167-0.171,0.327-0.35,0.484-0.533
				c0.05-0.059,0.103-0.113,0.153-0.173c0.203-0.246,0.395-0.503,0.576-0.77c0.042-0.062,0.077-0.128,0.118-0.191
				c0.129-0.201,0.255-0.402,0.371-0.612c0.074-0.131,0.14-0.268,0.206-0.402c0.073-0.145,0.146-0.289,0.211-0.437
				c0.073-0.163,0.139-0.332,0.204-0.499c0.049-0.125,0.095-0.252,0.139-0.38c0.064-0.183,0.122-0.368,0.175-0.555
				c0.014-0.049,0.032-0.096,0.046-0.145l11.388-42.501c0.01-0.032,0.018-0.066,0.027-0.099l32.197-120.162h8.963
				c4.828,0,9.053-3.243,10.303-7.906l11.435-42.666c0.859-3.203,0.178-6.624-1.841-9.254c-2.019-2.631-5.146-4.174-8.463-4.174
				h-3.25l8.727-32.566c1.252-4.675,2.102-7.843,7.335-9.26c4.631,11.977,16.262,20.497,29.852,20.497h42.668
				c17.645,0,32.001-14.355,32.001-31.999C512.001,57.022,497.644,42.667,480,42.667z M138.315,426.663
				c0,11.747-9.542,21.303-21.281,21.331h-0.054c-0.009,0-0.016,0.001-0.023,0.001c-11.751-0.015-21.308-9.576-21.308-21.332
				s9.56-21.32,21.314-21.331c0.009,0,0.016,0.001,0.023,0.001s0.018-0.001,0.026-0.001
				C128.761,405.348,138.315,414.909,138.315,426.663z M309.691,426.663c0,11.747-9.541,21.303-21.282,21.331h-0.053
				c-0.009,0-0.017,0.001-0.025,0.001c-11.751-0.015-21.308-9.576-21.308-21.332c0-11.753,9.553-21.313,21.301-21.331
				c0.009,0,0.017,0.001,0.023,0.001c0.01,0,0.018-0.001,0.026-0.001C300.131,405.341,309.691,414.906,309.691,426.663z
				 M346.467,213.331H226.656c-5.89,0-10.667,4.776-10.667,10.667c0,5.891,4.777,10.667,10.667,10.667h114.096l-5.716,21.332
				h-55.811c-5.89,0-10.667,4.775-10.667,10.667s4.776,10.667,10.667,10.667h50.095l-5.536,20.658l-247.59-20.016l-23.04-85.976
				h299.032L346.467,213.331z M375.049,170.663H30.284l-5.715-21.334h352.916c0.013,0,0.027,0.003,0.039,0.003
				c0.021,0,0.042-0.003,0.063-0.003h3.179L375.049,170.663z M480,85.333h-42.668c-5.882,0-10.664-4.784-10.664-10.666
				c0-5.882,4.783-10.667,10.664-10.667H480c5.883,0,10.668,4.785,10.668,10.667C490.667,80.549,485.882,85.333,480,85.333z"/>
			<path d="M185.061,234.664h6.4c5.891,0,10.667-4.775,10.667-10.667c0-5.89-4.775-10.667-10.667-10.667h-6.4
				c-5.89,0-10.667,4.776-10.667,10.667C174.395,229.89,179.171,234.664,185.061,234.664z"/>
		</g>
	</g>
</g>
<g>
</g>
<g>
</g>
<g>
</g>
<g>
</g>
<g>
</g>
<g>
</g>
<g>
</g>
<g>
</g>
<g>
</g>
<g>
</g>
<g>
</g>
<g>
</g>
<g>
</g>
<g>
</g>
<g>
</g>
</svg>
