<?xml version="1.0" encoding="UTF-8" standalone="no"?>
<!-- Created with Inkscape (http://www.inkscape.org/) -->

<svg
   xmlns:dc="http://purl.org/dc/elements/1.1/"
   xmlns:cc="http://creativecommons.org/ns#"
   xmlns:rdf="http://www.w3.org/1999/02/22-rdf-syntax-ns#"
   xmlns:svg="http://www.w3.org/2000/svg"
   xmlns="http://www.w3.org/2000/svg"
   xmlns:sodipodi="http://sodipodi.sourceforge.net/DTD/sodipodi-0.dtd"
   xmlns:inkscape="http://www.inkscape.org/namespaces/inkscape"
   width="48"
   height="48"
   viewBox="0 0 12.7 12.7"
   version="1.1"
   id="svg8"
   inkscape:version="0.92.3 (2405546, 2018-03-11)"
   sodipodi:docname="home_store.svg">
  <defs
     id="defs2" />
  <sodipodi:namedview
     id="base"
     pagecolor="#ffffff"
     bordercolor="#666666"
     borderopacity="1.0"
     inkscape:pageopacity="0.0"
     inkscape:pageshadow="2"
     inkscape:zoom="7.919596"
     inkscape:cx="14.183387"
     inkscape:cy="24.392277"
     inkscape:document-units="mm"
     inkscape:current-layer="layer1"
     showgrid="false"
     units="px"
     inkscape:snap-object-midpoints="true"
     inkscape:snap-center="true"
     inkscape:snap-text-baseline="true"
     inkscape:snap-page="true"
     inkscape:window-width="1366"
     inkscape:window-height="715"
     inkscape:window-x="-8"
     inkscape:window-y="-8"
     inkscape:window-maximized="1" />
  <metadata
     id="metadata5">
    <rdf:RDF>
      <cc:Work
         rdf:about="">
        <dc:format>image/svg+xml</dc:format>
        <dc:type
           rdf:resource="http://purl.org/dc/dcmitype/StillImage" />
        <dc:title></dc:title>
      </cc:Work>
    </rdf:RDF>
  </metadata>
  <g
     inkscape:label="Layer 1"
     inkscape:groupmode="layer"
     id="layer1"
     transform="translate(0,-284.29998)">
    <g
       id="g879"
       transform="matrix(0.02067052,0,0,0.02067052,1.0583409,285.35836)"
       style=" ">
      <g
         id="g820"
         style=" ">
	<g
   id="g818"
   style=" ">
		<g
   id="g816"
   style=" ">
			<path
   id="path812"
   d="m 480,42.667 h -42.668 c -14.136,0 -26.155,9.219 -30.376,21.958 -18.844,2.842 -24.595,14.742 -27.417,25.282 l -10.206,38.087 H 10.667 c -3.316,0 -6.444,1.542 -8.463,4.173 -2.019,2.631 -2.699,6.051 -1.841,9.254 l 11.432,42.668 c 1.25,4.663 5.475,7.906 10.303,7.906 h 8.966 l 26.466,98.762 c 0.024,0.093 0.059,0.18 0.085,0.271 0.048,0.159 0.095,0.32 0.15,0.476 0.061,0.175 0.129,0.344 0.198,0.512 0.05,0.123 0.096,0.246 0.15,0.367 0.27,0.603 0.592,1.169 0.959,1.697 0.02,0.027 0.041,0.053 0.06,0.08 0.167,0.237 0.344,0.465 0.528,0.685 0.051,0.061 0.105,0.118 0.156,0.178 0.158,0.18 0.322,0.355 0.491,0.524 0.073,0.071 0.146,0.143 0.22,0.212 0.157,0.148 0.319,0.29 0.484,0.427 0.087,0.074 0.176,0.148 0.267,0.219 0.164,0.128 0.334,0.249 0.506,0.366 0.095,0.067 0.188,0.137 0.286,0.198 0.253,0.162 0.512,0.315 0.778,0.455 0.114,0.062 0.236,0.112 0.352,0.17 0.172,0.082 0.344,0.164 0.518,0.239 0.127,0.053 0.255,0.1 0.383,0.148 0.186,0.068 0.371,0.133 0.559,0.193 0.115,0.035 0.232,0.07 0.349,0.103 0.238,0.065 0.477,0.121 0.721,0.17 0.073,0.015 0.146,0.033 0.219,0.046 0.356,0.065 0.715,0.112 1.079,0.14 l 251.14,20.304 -6.001,22.392 H 84.982 c -5.891,0 -10.667,4.776 -10.667,10.667 0,5.891 4.775,10.667 10.667,10.667 h 29.529 l -5.939,22.171 c -19.512,3.917 -34.256,21.181 -34.256,41.829 0,23.527 19.14,42.668 42.666,42.668 0.035,0 0.068,-0.003 0.104,-0.003 h 53.231 c 5.891,0 10.667,-4.775 10.667,-10.667 0,-5.89 -4.775,-10.667 -10.667,-10.667 H 153.91 c 3.642,-6.28 5.74,-13.564 5.74,-21.331 0,-18.874 -12.323,-34.913 -29.342,-40.524 l 6.29,-23.476 h 132.141 l 6.29,23.477 c -17.016,5.612 -29.339,21.651 -29.339,40.523 0,23.527 19.14,42.668 42.668,42.668 0.033,0 0.067,-0.003 0.102,-0.003 h 106.564 c 5.891,0 10.667,-4.775 10.667,-10.667 0,-5.89 -4.775,-10.667 -10.667,-10.667 h -69.738 c 3.643,-6.281 5.739,-13.564 5.739,-21.331 0,-20.648 -14.746,-37.914 -34.26,-41.83 l -5.939,-22.169 h 29.495 c 0.015,0 0.027,0.003 0.041,0.003 0.342,0 0.685,-0.022 1.022,-0.055 0.079,-0.007 0.157,-0.02 0.236,-0.029 0.244,-0.029 0.485,-0.065 0.724,-0.111 0.119,-0.022 0.239,-0.048 0.355,-0.074 0.192,-0.044 0.381,-0.093 0.571,-0.147 0.134,-0.038 0.269,-0.075 0.401,-0.118 0.17,-0.055 0.336,-0.119 0.502,-0.183 0.134,-0.052 0.272,-0.099 0.404,-0.156 0.268,-0.115 0.53,-0.243 0.788,-0.379 0.133,-0.071 0.262,-0.153 0.394,-0.23 0.144,-0.084 0.288,-0.169 0.428,-0.259 0.122,-0.08 0.241,-0.165 0.361,-0.251 0.145,-0.103 0.287,-0.208 0.426,-0.319 0.107,-0.084 0.209,-0.169 0.313,-0.256 0.15,-0.128 0.295,-0.262 0.439,-0.4 0.083,-0.08 0.169,-0.158 0.25,-0.242 0.167,-0.171 0.327,-0.35 0.484,-0.533 0.05,-0.059 0.103,-0.113 0.153,-0.173 0.203,-0.246 0.395,-0.503 0.576,-0.77 0.042,-0.062 0.077,-0.128 0.118,-0.191 0.129,-0.201 0.255,-0.402 0.371,-0.612 0.074,-0.131 0.14,-0.268 0.206,-0.402 0.073,-0.145 0.146,-0.289 0.211,-0.437 0.073,-0.163 0.139,-0.332 0.204,-0.499 0.049,-0.125 0.095,-0.252 0.139,-0.38 0.064,-0.183 0.122,-0.368 0.175,-0.555 0.014,-0.049 0.032,-0.096 0.046,-0.145 l 11.388,-42.501 c 0.01,-0.032 0.018,-0.066 0.027,-0.099 l 32.197,-120.162 h 8.963 c 4.828,0 9.053,-3.243 10.303,-7.906 l 11.435,-42.666 c 0.859,-3.203 0.178,-6.624 -1.841,-9.254 -2.019,-2.631 -5.146,-4.174 -8.463,-4.174 h -3.25 l 8.727,-32.566 c 1.252,-4.675 2.102,-7.843 7.335,-9.26 4.631,11.977 16.262,20.497 29.852,20.497 H 480 c 17.645,0 32.001,-14.355 32.001,-31.999 0,-17.649 -14.357,-32.004 -32.001,-32.004 z M 138.315,426.663 c 0,11.747 -9.542,21.303 -21.281,21.331 h -0.054 c -0.009,0 -0.016,10e-4 -0.023,10e-4 -11.751,-0.015 -21.308,-9.576 -21.308,-21.332 0,-11.756 9.56,-21.32 21.314,-21.331 0.009,0 0.016,0.001 0.023,0.001 0.007,0 0.018,-0.001 0.026,-0.001 11.749,0.016 21.303,9.577 21.303,21.331 z m 171.376,0 c 0,11.747 -9.541,21.303 -21.282,21.331 h -0.053 c -0.009,0 -0.017,10e-4 -0.025,10e-4 -11.751,-0.015 -21.308,-9.576 -21.308,-21.332 0,-11.753 9.553,-21.313 21.301,-21.331 0.009,0 0.017,0.001 0.023,0.001 0.01,0 0.018,-0.001 0.026,-0.001 11.758,0.009 21.318,9.574 21.318,21.331 z M 346.467,213.331 H 226.656 c -5.89,0 -10.667,4.776 -10.667,10.667 0,5.891 4.777,10.667 10.667,10.667 h 114.096 l -5.716,21.332 h -55.811 c -5.89,0 -10.667,4.775 -10.667,10.667 0,5.892 4.776,10.667 10.667,10.667 h 50.095 l -5.536,20.658 -247.59,-20.016 -23.04,-85.976 h 299.032 z m 28.582,-42.668 H 30.284 l -5.715,-21.334 h 352.916 c 0.013,0 0.027,0.003 0.039,0.003 0.021,0 0.042,-0.003 0.063,-0.003 h 3.179 z M 480,85.333 h -42.668 c -5.882,0 -10.664,-4.784 -10.664,-10.666 0,-5.882 4.783,-10.667 10.664,-10.667 H 480 c 5.883,0 10.668,4.785 10.668,10.667 -0.001,5.882 -4.786,10.666 -10.668,10.666 z"
   inkscape:connector-curvature="0"
   style=" " />

			<path
   id="path814"
   d="m 185.061,234.664 h 6.4 c 5.891,0 10.667,-4.775 10.667,-10.667 0,-5.89 -4.775,-10.667 -10.667,-10.667 h -6.4 c -5.89,0 -10.667,4.776 -10.667,10.667 0.001,5.893 4.777,10.667 10.667,10.667 z"
   inkscape:connector-curvature="0"
   style=" " />

		</g>

	</g>

</g>
      <g
         id="g822"
         style=" ">
</g>
      <g
         id="g824"
         style=" ">
</g>
      <g
         id="g826"
         style=" ">
</g>
      <g
         id="g828"
         style=" ">
</g>
      <g
         id="g830"
         style=" ">
</g>
      <g
         id="g832"
         style=" ">
</g>
      <g
         id="g834"
         style=" ">
</g>
      <g
         id="g836"
         style=" ">
</g>
      <g
         id="g838"
         style=" ">
</g>
      <g
         id="g840"
         style=" ">
</g>
      <g
         id="g842"
         style=" ">
</g>
      <g
         id="g844"
         style=" ">
</g>
      <g
         id="g846"
         style=" ">
</g>
      <g
         id="g848"
         style=" ">
</g>
      <g
         id="g850"
         style=" ">
</g>
    </g>
  </g>
</svg>
