<?xml version="1.0" encoding="UTF-8" ?>
<!DOCTYPE svg PUBLIC "-//W3C//DTD SVG 1.1//EN" "http://www.w3.org/Graphics/SVG/1.1/DTD/svg11.dtd">
<svg width="85pt" height="72pt" viewBox="0 0 85 72" version="1.1" xmlns="http://www.w3.org/2000/svg">
<path    opacity="1.00" d=" M 39.86 0.00 L 39.86 0.00 C 46.99 1.22 54.73 -1.21 61.56 1.69 C 65.47 3.41 68.77 6.47 70.72 10.27 C 73.97 16.65 77.19 23.05 80.46 29.43 C 83.02 32.57 85.00 36.38 85.00 40.53 L 85.00 42.96 C 83.65 46.03 78.51 45.32 78.51 41.88 C 78.71 35.74 73.21 30.06 67.05 30.26 C 50.69 30.27 34.33 30.26 17.98 30.27 C 12.55 30.15 7.62 34.63 6.79 39.92 C 6.65 44.53 6.80 49.14 6.70 53.76 C 10.21 53.66 13.72 53.80 17.23 53.70 C 21.28 49.97 24.73 45.48 29.14 42.22 C 37.74 42.07 46.35 42.19 54.96 42.16 C 57.09 41.98 58.21 44.17 59.65 45.35 C 62.56 48.05 65.08 51.27 68.18 53.72 C 72.51 53.75 76.83 53.72 81.16 53.73 C 82.85 53.37 84.08 54.65 85.00 55.85 L 85.00 70.20 C 84.26 70.68 83.64 71.28 83.13 72.00 L 67.87 72.00 C 66.54 71.75 65.63 70.99 65.14 69.73 C 65.13 66.66 65.18 63.59 65.17 60.53 C 50.08 60.51 34.99 60.45 19.91 60.56 C 20.11 63.71 20.19 66.89 19.94 70.04 C 19.36 70.74 18.74 71.39 18.06 72.00 L 1.78 72.00 C 1.44 71.13 0.84 70.48 0.00 70.04 L 0.00 41.29 C 0.10 36.99 1.83 32.84 4.62 29.59 C 7.85 23.17 11.14 16.78 14.38 10.37 C 16.49 6.29 20.10 2.95 24.42 1.38 C 29.39 -0.39 34.75 0.74 39.86 0.00 M 20.77 12.66 C 18.79 16.33 17.00 20.10 14.98 23.75 C 31.30 23.17 47.69 23.66 64.04 23.50 C 66.18 23.70 68.73 22.93 70.54 24.41 C 68.36 20.60 66.49 16.50 64.36 12.62 C 62.35 8.99 58.22 6.88 54.15 6.84 C 46.40 6.85 38.64 6.84 30.89 6.84 C 26.86 6.92 22.71 9.03 20.77 12.66 M 26.57 53.69 C 37.21 53.97 47.91 53.34 58.53 54.01 C 57.39 51.85 55.17 50.60 53.61 48.76 C 46.35 48.72 39.09 48.77 31.83 48.74 C 29.93 50.14 28.25 52.01 26.57 53.69 M 6.71 60.53 C 6.72 62.17 6.72 63.82 6.71 65.46 C 8.95 65.49 11.21 65.59 13.45 65.41 C 13.36 63.80 13.36 62.20 13.45 60.59 C 11.21 60.41 8.96 60.52 6.71 60.53 M 71.71 60.54 C 71.73 62.17 71.72 63.80 71.70 65.43 C 73.98 65.54 76.29 65.58 78.57 65.39 C 78.49 63.80 78.50 62.22 78.60 60.63 C 76.32 60.36 74.00 60.54 71.71 60.54 Z" />
<path    opacity="1.00" d=" M 15.20 39.20 C 17.15 37.72 20.12 39.81 20.06 41.99 C 20.37 44.81 16.27 46.82 14.38 44.50 C 12.59 43.07 13.11 40.03 15.20 39.20 Z" />
<path    opacity="1.00" d=" M 66.40 39.47 C 69.63 36.58 74.09 42.23 70.57 44.73 C 67.34 47.70 62.73 41.95 66.40 39.47 Z" />
</svg>
