<?xml version="1.0" encoding="UTF-8" ?>
<!DOCTYPE svg PUBLIC "-//W3C//DTD SVG 1.1//EN" "http://www.w3.org/Graphics/SVG/1.1/DTD/svg11.dtd">
<svg width="56pt" height="50pt" viewBox="0 0 56 50" version="1.1" xmlns="http://www.w3.org/2000/svg">
<path  opacity="1.00" d=" M 53.65 0.00 L 53.85 0.00 C 55.59 0.40 56.35 2.20 55.65 3.79 C 52.83 18.37 50.05 32.96 47.22 47.54 C 47.18 49.07 45.34 50.30 43.96 49.43 C 39.12 46.34 34.47 42.96 29.61 39.91 C 26.69 41.78 24.12 44.31 20.95 45.70 C 20.51 45.53 19.63 45.17 19.19 45.00 C 17.31 40.12 16.43 34.86 14.89 29.85 C 10.03 27.56 4.44 26.59 0.00 23.59 L 0.00 21.72 C 0.35 21.42 1.06 20.81 1.41 20.51 C 18.84 13.72 36.19 6.72 53.65 0.00 M 8.42 22.54 C 11.55 23.81 14.73 24.92 17.86 26.17 C 19.59 27.36 19.30 29.85 20.05 31.64 C 27.54 23.62 35.93 16.37 43.76 8.65 C 31.98 13.26 20.22 17.95 8.42 22.54 M 25.89 31.92 C 31.71 35.86 37.56 39.76 43.38 43.69 C 45.63 32.08 47.86 20.46 50.09 8.84 C 42.01 16.52 33.93 24.21 25.89 31.92 M 22.23 39.70 C 23.38 38.87 24.53 38.03 25.68 37.19 C 24.00 36.05 22.29 34.94 20.62 33.77 C 21.14 35.75 21.64 37.74 22.23 39.70 Z" />
</svg>
