<?xml version="1.0" encoding="UTF-8" ?>
<!DOCTYPE svg PUBLIC "-//W3C//DTD SVG 1.1//EN" "http://www.w3.org/Graphics/SVG/1.1/DTD/svg11.dtd">
<svg width="83pt" height="82pt" viewBox="0 0 83 82" version="1.1" xmlns="http://www.w3.org/2000/svg">
<path    opacity="1.00" d=" M 18.66 0.00 L 21.38 0.00 C 23.74 1.29 23.57 4.05 23.76 6.38 C 28.44 6.37 33.12 6.36 37.80 6.39 C 37.94 4.13 38.16 1.80 39.68 0.00 L 42.42 0.00 C 44.83 1.26 44.63 4.04 44.82 6.38 C 49.59 6.37 54.36 6.37 59.13 6.38 C 59.28 4.06 59.08 1.24 61.48 0.00 L 63.68 0.00 C 66.12 1.20 65.85 4.02 66.08 6.32 C 69.44 6.39 73.03 6.15 76.08 7.84 C 79.86 9.73 82.36 13.58 83.00 17.71 L 83.00 38.59 C 81.77 41.24 77.35 41.54 76.68 38.39 C 75.97 31.30 77.18 24.08 76.07 17.05 C 74.71 12.83 69.78 12.62 66.08 12.72 C 65.78 15.05 66.28 18.93 63.01 19.22 C 59.25 19.77 59.14 15.38 59.14 12.81 C 54.36 12.82 49.58 12.82 44.80 12.81 C 44.65 14.37 44.65 15.95 44.27 17.47 C 43.26 19.81 39.53 19.83 38.43 17.56 C 38.06 16.00 38.00 14.39 37.82 12.81 C 33.13 12.82 28.43 12.82 23.73 12.81 C 23.63 15.40 23.67 19.56 19.98 19.26 C 16.59 19.01 17.05 15.11 16.81 12.70 C 13.99 12.93 10.64 12.45 8.47 14.68 C 6.39 16.52 6.48 19.48 6.48 22.02 C 6.56 37.70 6.42 53.40 6.55 69.08 C 6.44 72.31 9.12 75.30 12.35 75.47 C 21.20 75.87 30.08 75.18 38.91 75.77 C 41.89 76.72 41.22 80.29 39.37 82.00 L 11.64 82.00 C 5.71 81.43 0.69 76.55 0.00 70.62 L 0.00 17.89 C 0.54 13.67 3.10 9.74 6.94 7.83 C 9.96 6.17 13.49 6.38 16.82 6.34 C 16.91 4.10 17.04 1.73 18.66 0.00 Z" />
<path    opacity="1.00" d=" M 17.68 31.62 C 19.21 29.44 23.18 30.33 23.46 33.02 C 24.05 35.05 22.00 37.18 19.96 36.85 C 17.47 36.79 16.01 33.48 17.68 31.62 Z" />
<path    opacity="1.00" d=" M 32.28 31.11 C 35.56 28.17 39.94 33.94 36.27 36.28 C 33.05 38.82 28.98 33.54 32.28 31.11 Z" />
<path    opacity="1.00" d=" M 46.20 31.27 C 47.89 29.51 51.38 30.53 51.69 33.01 C 52.34 35.49 49.40 37.75 47.15 36.61 C 45.06 35.82 44.47 32.73 46.20 31.27 Z" />
<path    opacity="1.00" d=" M 60.34 31.23 C 62.05 29.52 65.57 30.54 65.77 33.05 C 66.50 35.56 63.35 37.79 61.12 36.56 C 59.10 35.67 58.66 32.67 60.34 31.23 Z" />
<path    opacity="1.00" d=" M 52.58 46.41 C 59.43 41.83 69.14 42.23 75.56 47.40 C 79.77 50.60 82.37 55.59 83.00 60.80 L 83.00 64.15 C 82.36 73.43 74.39 81.23 65.17 82.00 L 61.88 82.00 C 53.48 81.43 45.86 75.00 44.18 66.70 C 42.40 59.04 45.96 50.60 52.58 46.41 M 58.43 50.65 C 52.47 52.95 48.87 60.00 50.79 66.14 C 52.60 72.89 60.37 77.16 67.03 75.04 C 73.72 73.28 78.13 65.63 75.94 58.99 C 74.00 51.79 65.25 47.64 58.43 50.65 Z" />
<path    opacity="1.00" d=" M 33.41 44.45 C 35.78 43.63 38.35 46.12 37.51 48.51 C 36.88 51.06 33.09 51.64 31.68 49.45 C 30.36 47.74 31.34 44.99 33.41 44.45 Z" />
<path    opacity="1.00" d=" M 17.69 45.55 C 19.24 43.37 23.10 44.27 23.50 46.94 C 24.09 49.31 21.42 51.53 19.20 50.62 C 17.11 50.05 16.24 47.18 17.69 45.55 Z" />
<path    opacity="1.00" d=" M 60.17 55.91 C 60.04 53.25 63.70 51.79 65.56 53.61 C 67.13 54.98 66.51 57.30 66.79 59.12 C 68.24 59.60 70.23 59.40 70.97 61.06 C 72.28 63.13 70.42 66.02 68.02 65.85 C 65.49 65.73 61.80 66.77 60.37 63.97 C 59.91 61.32 60.10 58.59 60.17 55.91 Z" />
<path    opacity="1.00" d=" M 18.48 58.77 C 20.66 57.21 24.09 59.30 23.50 61.99 C 23.30 64.22 20.47 65.47 18.62 64.31 C 16.51 63.26 16.44 59.93 18.48 58.77 Z" />
<path    opacity="1.00" d=" M 31.72 59.56 C 32.98 57.73 36.12 57.83 37.18 59.82 C 38.65 62.00 36.54 65.24 33.92 64.73 C 31.53 64.53 30.20 61.42 31.72 59.56 Z" />
</svg>
