<?xml version="1.0" encoding="UTF-8" standalone="no"?>
<!-- Created with Inkscape (http://www.inkscape.org/) -->

<svg
   xmlns:dc="http://purl.org/dc/elements/1.1/"
   xmlns:cc="http://creativecommons.org/ns#"
   xmlns:rdf="http://www.w3.org/1999/02/22-rdf-syntax-ns#"
   xmlns:svg="http://www.w3.org/2000/svg"
   xmlns="http://www.w3.org/2000/svg"
   xmlns:sodipodi="http://sodipodi.sourceforge.net/DTD/sodipodi-0.dtd"
   xmlns:inkscape="http://www.inkscape.org/namespaces/inkscape"
   width="48"
   height="48"
   viewBox="0 0 12.7 12.7"
   version="1.1"
   id="svg8"
   inkscape:version="0.92.3 (2405546, 2018-03-11)"
   sodipodi:docname="home_wallet.svg">
  <defs
     id="defs2" />
  <sodipodi:namedview
     id="base"
     pagecolor="#ffffff"
     bordercolor="#666666"
     borderopacity="1.0"
     inkscape:pageopacity="0.0"
     inkscape:pageshadow="2"
     inkscape:zoom="5.6"
     inkscape:cx="16.547767"
     inkscape:cy="36.505372"
     inkscape:document-units="mm"
     inkscape:current-layer="layer1"
     showgrid="false"
     units="px"
     inkscape:snap-object-midpoints="true"
     inkscape:snap-center="true"
     inkscape:snap-text-baseline="true"
     inkscape:snap-page="true"
     inkscape:window-width="1366"
     inkscape:window-height="715"
     inkscape:window-x="-8"
     inkscape:window-y="-8"
     inkscape:window-maximized="1" />
  <metadata
     id="metadata5">
    <rdf:RDF>
      <cc:Work
         rdf:about="">
        <dc:format>image/svg+xml</dc:format>
        <dc:type
           rdf:resource="http://purl.org/dc/dcmitype/StillImage" />
        <dc:title></dc:title>
      </cc:Work>
    </rdf:RDF>
  </metadata>
  <g
     inkscape:label="Layer 1"
     inkscape:groupmode="layer"
     id="layer1"
     transform="translate(0,-284.29998)">
    <g
       id="g968"
       transform="matrix(0.02067057,0,0,0.02067057,1.0583351,285.35832)"
       style=" ">
      <g
         id="g903"
         style=" ">
	<g
   id="g901"
   style=" ">
		<g
   id="g899"
   style=" ">
			<path
   id="path883"
   d="m 501.348,168.849 -35.457,-35.515 c 6.742,-13.145 4.631,-29.706 -6.347,-40.701 l -34.29,-34.347 c -6.576,-6.587 -15.346,-10.213 -24.691,-10.213 -5.654,0 -11.09,1.334 -15.963,3.84 L 349.162,16.419 C 342.304,9.549 333.16,5.766 323.411,5.766 c -9.748,0 -18.895,3.782 -25.755,10.652 L 260.579,53.553 217.749,10.651 C 210.892,3.782 201.746,0 191.998,0 182.25,0 173.106,3.782 166.25,10.649 L 24.396,152.736 c -32.444,32.495 -32.512,85.323 -0.204,117.901 0.067,0.069 0.133,0.139 0.202,0.207 l 154.259,154.513 c 0.497,0.498 1.038,0.942 1.614,1.327 15.585,14.849 35.935,23.001 57.539,23.001 22.295,0 43.257,-8.684 59.028,-24.454 L 501.349,220.385 c 14.186,-14.205 14.185,-37.325 -10e-4,-51.536 z m -110.41,-95.461 0.029,-0.028 c 2.545,-2.55 5.952,-3.954 9.596,-3.954 3.643,0 7.05,1.404 9.595,3.953 l 34.29,34.347 c 5.305,5.312 5.303,13.958 0.001,19.271 l -29.975,30.021 c -0.006,0.006 -0.014,0.012 -0.021,0.019 -0.006,0.007 -0.013,0.015 -0.02,0.022 l -38.565,38.627 c -2.546,2.549 -5.954,3.953 -9.596,3.953 -3.644,0 -7.051,-1.404 -9.596,-3.953 l -15.229,-15.252 -19.06,-19.093 c -5.307,-5.312 -5.307,-13.955 0.002,-19.27 z m 95.316,131.925 -204.51,204.841 c -11.737,11.737 -27.34,18.201 -43.937,18.201 -16.597,0 -32.201,-6.464 -43.937,-18.201 -0.462,-0.462 -0.961,-0.876 -1.49,-1.241 L 39.68,255.961 c -0.061,-0.065 -0.123,-0.128 -0.186,-0.191 -24.213,-24.251 -24.213,-63.71 0,-87.961 L 181.348,25.722 c 2.825,-2.83 6.606,-4.388 10.65,-4.388 4.044,0 7.827,1.56 10.654,4.39 L 245.506,68.651 92.999,221.406 c -0.006,0.006 -0.015,0.013 -0.021,0.019 -2.566,2.569 -5.975,3.983 -9.6,3.983 h -0.002 c -3.623,0 -7.033,-1.414 -9.596,-3.982 -5.306,-5.313 -5.306,-13.959 0,-19.273 0.404,-0.404 0.756,-0.841 1.083,-1.289 l 94.508,-94.505 c 4.164,-4.165 4.165,-10.919 0,-15.085 -4.165,-4.165 -10.918,-4.165 -15.086,-0.001 L 58.69,186.866 c -0.493,0.493 -0.924,1.025 -1.3,1.583 -12.293,13.702 -11.862,34.87 1.294,48.048 6.594,6.605 15.363,10.242 24.692,10.242 0,0 10e-4,0 0.003,0 9.31,0 18.063,-3.623 24.653,-10.203 0.014,-0.014 0.028,-0.025 0.043,-0.038 L 268.127,76.187 312.752,31.492 c 2.828,-2.832 6.613,-4.393 10.658,-4.393 4.044,0 7.827,1.559 10.654,4.391 L 368.343,65.824 353.411,80.78 330.955,58.287 c -2.001,-2.004 -4.717,-3.131 -7.549,-3.131 -2.832,0 -5.548,1.126 -7.549,3.131 l -32.823,32.877 c -4.162,4.17 -4.156,10.923 0.013,15.085 2.082,2.079 4.809,3.118 7.535,3.118 2.734,0 5.467,-1.044 7.549,-3.131 l 25.275,-25.316 14.93,14.956 -31.05,31.1 c -13.604,13.623 -13.604,35.793 0,49.419 l 19.615,19.646 14.676,14.702 c 6.576,6.586 15.346,10.213 24.692,10.213 9.346,0 18.114,-3.627 24.694,-10.214 l 31.026,-31.076 14.929,14.954 -25.302,25.339 c -4.161,4.169 -4.156,10.923 0.013,15.086 2.082,2.079 4.81,3.118 7.536,3.118 2.733,0 5.466,-1.044 7.549,-3.13 l 32.825,-32.876 c 4.158,-4.164 4.158,-10.909 0,-15.073 l -22.478,-22.514 14.932,-14.957 34.254,34.309 c 5.892,5.898 5.893,15.496 0.007,21.391 z"
   inkscape:connector-curvature="0"
   style=" " />

			<path
   id="path885"
   d="m 383.415,168.859 c 9.471,-9.487 9.471,-24.862 0,-34.345 -9.468,-9.485 -24.82,-9.485 -34.288,0 -9.469,9.484 -9.469,24.859 0,34.345 9.467,9.485 24.819,9.485 34.288,0 z"
   inkscape:connector-curvature="0"
   style=" " />

			<path
   id="path887"
   d="m 250.21,124.045 -32.825,32.877 c -4.162,4.17 -4.156,10.923 0.013,15.085 2.083,2.079 4.81,3.118 7.537,3.118 2.732,0 5.466,-1.044 7.549,-3.131 l 32.822,-32.877 c 4.162,-4.17 4.156,-10.923 -0.013,-15.085 -4.168,-4.161 -10.922,-4.157 -15.083,0.013 z"
   inkscape:connector-curvature="0"
   style=" " />

			<path
   id="path889"
   d="m 184.563,189.797 -32.827,32.881 c -4.161,4.169 -4.156,10.923 0.014,15.085 2.082,2.079 4.81,3.118 7.536,3.118 2.733,0 5.465,-1.044 7.548,-3.131 l 32.827,-32.881 c 4.161,-4.169 4.156,-10.923 -0.014,-15.085 -4.168,-4.162 -10.922,-4.155 -15.084,0.013 z"
   inkscape:connector-curvature="0"
   style=" " />

			<path
   id="path891"
   d="m 378.796,252.838 -32.825,32.876 c -4.162,4.169 -4.158,10.922 0.011,15.085 2.082,2.079 4.811,3.119 7.537,3.119 2.732,0 5.464,-1.044 7.548,-3.131 l 32.825,-32.875 c 4.162,-4.169 4.158,-10.922 -0.011,-15.085 -4.168,-4.162 -10.922,-4.158 -15.085,0.011 z"
   inkscape:connector-curvature="0"
   style=" " />

			<path
   id="path893"
   d="m 313.147,318.595 -32.823,32.875 c -4.162,4.169 -4.157,10.923 0.012,15.085 2.082,2.079 4.81,3.119 7.536,3.119 2.733,0 5.464,-1.044 7.548,-3.131 l 32.825,-32.875 c 4.162,-4.169 4.156,-10.923 -0.013,-15.085 -4.169,-4.162 -10.922,-4.157 -15.085,0.012 z"
   inkscape:connector-curvature="0"
   style=" " />

			<path
   id="path895"
   d="M 362.642,490.667 H 149.309 c -5.89,0 -10.667,4.777 -10.667,10.667 0,5.89 4.777,10.666 10.667,10.666 h 213.333 c 5.891,0 10.667,-4.776 10.667,-10.667 0,-5.891 -4.776,-10.666 -10.667,-10.666 z"
   inkscape:connector-curvature="0"
   style=" " />

			<path
   id="path897"
   d="m 187.074,84.238 c 2.731,0 5.461,-1.042 7.544,-3.126 l 4.919,-4.923 c 4.164,-4.167 4.161,-10.921 -0.005,-15.085 -4.166,-4.163 -10.919,-4.162 -15.085,0.004 l -4.919,4.923 c -4.164,4.167 -4.162,10.921 0.004,15.085 2.085,2.081 4.815,3.122 7.542,3.122 z"
   inkscape:connector-curvature="0"
   style=" " />

		</g>

	</g>

</g>
      <g
         id="g905"
         style=" ">
</g>
      <g
         id="g907"
         style=" ">
</g>
      <g
         id="g909"
         style=" ">
</g>
      <g
         id="g911"
         style=" ">
</g>
      <g
         id="g913"
         style=" ">
</g>
      <g
         id="g915"
         style=" ">
</g>
      <g
         id="g917"
         style=" ">
</g>
      <g
         id="g919"
         style=" ">
</g>
      <g
         id="g921"
         style=" ">
</g>
      <g
         id="g923"
         style=" ">
</g>
      <g
         id="g925"
         style=" ">
</g>
      <g
         id="g927"
         style=" ">
</g>
      <g
         id="g929"
         style=" ">
</g>
      <g
         id="g931"
         style=" ">
</g>
      <g
         id="g933"
         style=" ">
</g>
    </g>
  </g>
</svg>
